<svg width="66" height="25" viewBox="0 0 66 25" fill="none" xmlns="http://www.w3.org/2000/svg">
<path id="+&#226;&#130;&#185; 3,000" d="M9.472 13.3178H6.448V16.4218H4.336V13.3178H1.312V11.3658H4.336V8.26184H6.448V11.3658H9.472V13.3178ZM17.9493 8.42184V9.63784H19.5653V11.1098H17.8533C17.6826 12.1232 17.2613 12.8592 16.5893 13.3178C15.9279 13.7765 14.9253 14.0058 13.5813 14.0058V14.8538C13.5813 15.3552 13.6826 15.7498 13.8853 16.0378C14.0986 16.3258 14.4559 16.4698 14.9573 16.4698C15.4373 16.4698 15.7839 16.3365 15.9973 16.0698C16.2106 15.7925 16.3173 15.3925 16.3173 14.8698H18.3973C18.3759 15.9472 18.0719 16.7738 17.4853 17.3498C16.8986 17.9152 16.0613 18.1978 14.9733 18.1978C13.8426 18.1978 12.9786 17.8938 12.3813 17.2858C11.7839 16.6778 11.4853 15.7925 11.4853 14.6298V12.5018C12.6266 12.5018 13.4693 12.4752 14.0133 12.4218C14.5573 12.3578 14.9626 12.2298 15.2293 12.0378C15.4959 11.8458 15.6719 11.5365 15.7573 11.1098H10.9733V9.63784H15.8373V8.42184H10.9733V6.85384H19.5653V8.42184H17.9493ZM23.815 9.44584C23.8683 8.37917 24.2417 7.55784 24.935 6.98184C25.639 6.39517 26.5617 6.10184 27.703 6.10184C28.4817 6.10184 29.1483 6.24051 29.703 6.51784C30.2577 6.78451 30.6737 7.15251 30.951 7.62184C31.239 8.08051 31.383 8.60317 31.383 9.18984C31.383 9.86184 31.207 10.4325 30.855 10.9018C30.5137 11.3605 30.103 11.6698 29.623 11.8298V11.8938C30.2417 12.0858 30.7217 12.4272 31.063 12.9178C31.415 13.4085 31.591 14.0378 31.591 14.8058C31.591 15.4458 31.4417 16.0165 31.143 16.5178C30.855 17.0192 30.423 17.4138 29.847 17.7018C29.2817 17.9792 28.599 18.1178 27.799 18.1178C26.5937 18.1178 25.6123 17.8138 24.855 17.2058C24.0977 16.5978 23.6977 15.7018 23.655 14.5178H25.831C25.8523 15.0405 26.0283 15.4618 26.359 15.7818C26.7003 16.0912 27.1643 16.2458 27.751 16.2458C28.295 16.2458 28.711 16.0965 28.999 15.7978C29.2977 15.4885 29.447 15.0938 29.447 14.6138C29.447 13.9738 29.2443 13.5152 28.839 13.2378C28.4337 12.9605 27.8043 12.8218 26.951 12.8218H26.487V10.9818H26.951C28.4657 10.9818 29.223 10.4752 29.223 9.46184C29.223 9.00317 29.0843 8.64584 28.807 8.38984C28.5403 8.13384 28.151 8.00584 27.639 8.00584C27.1377 8.00584 26.7483 8.14451 26.471 8.42184C26.2043 8.68851 26.0497 9.02984 26.007 9.44584H23.815ZM35.5851 15.6858L33.7131 20.1818H32.2731L33.3131 15.6858H35.5851ZM36.4636 12.0538C36.4636 10.2085 36.7943 8.76317 37.4556 7.71784C38.1276 6.67251 39.237 6.14984 40.7836 6.14984C42.3303 6.14984 43.4343 6.67251 44.0956 7.71784C44.7676 8.76317 45.1036 10.2085 45.1036 12.0538C45.1036 13.9098 44.7676 15.3658 44.0956 16.4218C43.4343 17.4778 42.3303 18.0058 40.7836 18.0058C39.237 18.0058 38.1276 17.4778 37.4556 16.4218C36.7943 15.3658 36.4636 13.9098 36.4636 12.0538ZM42.8956 12.0538C42.8956 11.2645 42.8423 10.6032 42.7356 10.0698C42.6396 9.52584 42.437 9.08317 42.1276 8.74184C41.829 8.40051 41.381 8.22984 40.7836 8.22984C40.1863 8.22984 39.733 8.40051 39.4236 8.74184C39.125 9.08317 38.9223 9.52584 38.8156 10.0698C38.7196 10.6032 38.6716 11.2645 38.6716 12.0538C38.6716 12.8645 38.7196 13.5472 38.8156 14.1018C38.9116 14.6458 39.1143 15.0885 39.4236 15.4298C39.733 15.7605 40.1863 15.9258 40.7836 15.9258C41.381 15.9258 41.8343 15.7605 42.1436 15.4298C42.453 15.0885 42.6556 14.6458 42.7516 14.1018C42.8476 13.5472 42.8956 12.8645 42.8956 12.0538ZM46.3274 12.0538C46.3274 10.2085 46.658 8.76317 47.3194 7.71784C47.9914 6.67251 49.1007 6.14984 50.6474 6.14984C52.194 6.14984 53.298 6.67251 53.9594 7.71784C54.6314 8.76317 54.9674 10.2085 54.9674 12.0538C54.9674 13.9098 54.6314 15.3658 53.9594 16.4218C53.298 17.4778 52.194 18.0058 50.6474 18.0058C49.1007 18.0058 47.9914 17.4778 47.3194 16.4218C46.658 15.3658 46.3274 13.9098 46.3274 12.0538ZM52.7594 12.0538C52.7594 11.2645 52.706 10.6032 52.5994 10.0698C52.5034 9.52584 52.3007 9.08317 51.9914 8.74184C51.6927 8.40051 51.2447 8.22984 50.6474 8.22984C50.05 8.22984 49.5967 8.40051 49.2874 8.74184C48.9887 9.08317 48.786 9.52584 48.6794 10.0698C48.5834 10.6032 48.5354 11.2645 48.5354 12.0538C48.5354 12.8645 48.5834 13.5472 48.6794 14.1018C48.7754 14.6458 48.978 15.0885 49.2874 15.4298C49.5967 15.7605 50.05 15.9258 50.6474 15.9258C51.2447 15.9258 51.698 15.7605 52.0074 15.4298C52.3167 15.0885 52.5194 14.6458 52.6154 14.1018C52.7114 13.5472 52.7594 12.8645 52.7594 12.0538ZM56.1911 12.0538C56.1911 10.2085 56.5218 8.76317 57.1831 7.71784C57.8551 6.67251 58.9645 6.14984 60.5111 6.14984C62.0578 6.14984 63.1618 6.67251 63.8231 7.71784C64.4951 8.76317 64.8311 10.2085 64.8311 12.0538C64.8311 13.9098 64.4951 15.3658 63.8231 16.4218C63.1618 17.4778 62.0578 18.0058 60.5111 18.0058C58.9645 18.0058 57.8551 17.4778 57.1831 16.4218C56.5218 15.3658 56.1911 13.9098 56.1911 12.0538ZM62.6231 12.0538C62.6231 11.2645 62.5698 10.6032 62.4631 10.0698C62.3671 9.52584 62.1645 9.08317 61.8551 8.74184C61.5565 8.40051 61.1085 8.22984 60.5111 8.22984C59.9138 8.22984 59.4605 8.40051 59.1511 8.74184C58.8525 9.08317 58.6498 9.52584 58.5431 10.0698C58.4471 10.6032 58.3991 11.2645 58.3991 12.0538C58.3991 12.8645 58.4471 13.5472 58.5431 14.1018C58.6391 14.6458 58.8418 15.0885 59.1511 15.4298C59.4605 15.7605 59.9138 15.9258 60.5111 15.9258C61.1085 15.9258 61.5618 15.7605 61.8711 15.4298C62.1805 15.0885 62.3831 14.6458 62.4791 14.1018C62.5751 13.5472 62.6231 12.8645 62.6231 12.0538Z" fill="#32F033"/>
</svg>
