<svg width="65" height="24" viewBox="0 0 65 24" fill="none" xmlns="http://www.w3.org/2000/svg">
<path id="-&#226;&#130;&#185; 3,000" d="M7.92 11.344V13.232H1.136V11.344H7.92ZM16.4961 8.384V9.6H18.1121V11.072H16.4001C16.2295 12.0853 15.8081 12.8213 15.1361 13.28C14.4748 13.7387 13.4721 13.968 12.1281 13.968V14.816C12.1281 15.3173 12.2295 15.712 12.4321 16C12.6455 16.288 13.0028 16.432 13.5041 16.432C13.9841 16.432 14.3308 16.2987 14.5441 16.032C14.7575 15.7547 14.8641 15.3547 14.8641 14.832H16.9441C16.9228 15.9093 16.6188 16.736 16.0321 17.312C15.4455 17.8773 14.6081 18.16 13.5201 18.16C12.3895 18.16 11.5255 17.856 10.9281 17.248C10.3308 16.64 10.0321 15.7547 10.0321 14.592V12.464C11.1735 12.464 12.0161 12.4373 12.5601 12.384C13.1041 12.32 13.5095 12.192 13.7761 12C14.0428 11.808 14.2188 11.4987 14.3041 11.072H9.52013V9.6H14.3841V8.384H9.52013V6.816H18.1121V8.384H16.4961ZM22.3619 9.408C22.4152 8.34133 22.7885 7.52 23.4819 6.944C24.1859 6.35733 25.1085 6.064 26.2499 6.064C27.0285 6.064 27.6952 6.20267 28.2499 6.48C28.8045 6.74667 29.2205 7.11467 29.4979 7.584C29.7859 8.04267 29.9299 8.56533 29.9299 9.152C29.9299 9.824 29.7539 10.3947 29.4019 10.864C29.0605 11.3227 28.6499 11.632 28.1699 11.792V11.856C28.7885 12.048 29.2685 12.3893 29.6099 12.88C29.9619 13.3707 30.1379 14 30.1379 14.768C30.1379 15.408 29.9885 15.9787 29.6899 16.48C29.4019 16.9813 28.9699 17.376 28.3939 17.664C27.8285 17.9413 27.1459 18.08 26.3459 18.08C25.1405 18.08 24.1592 17.776 23.4019 17.168C22.6445 16.56 22.2445 15.664 22.2019 14.48H24.3779C24.3992 15.0027 24.5752 15.424 24.9059 15.744C25.2472 16.0533 25.7112 16.208 26.2979 16.208C26.8419 16.208 27.2579 16.0587 27.5459 15.76C27.8445 15.4507 27.9939 15.056 27.9939 14.576C27.9939 13.936 27.7912 13.4773 27.3859 13.2C26.9805 12.9227 26.3512 12.784 25.4979 12.784H25.0339V10.944H25.4979C27.0125 10.944 27.7699 10.4373 27.7699 9.424C27.7699 8.96533 27.6312 8.608 27.3539 8.352C27.0872 8.096 26.6979 7.968 26.1859 7.968C25.6845 7.968 25.2952 8.10667 25.0179 8.384C24.7512 8.65067 24.5965 8.992 24.5539 9.408H22.3619ZM34.132 15.648L32.26 20.144H30.82L31.86 15.648H34.132ZM35.0105 12.016C35.0105 10.1707 35.3412 8.72533 36.0025 7.68C36.6745 6.63467 37.7838 6.112 39.3305 6.112C40.8772 6.112 41.9812 6.63467 42.6425 7.68C43.3145 8.72533 43.6505 10.1707 43.6505 12.016C43.6505 13.872 43.3145 15.328 42.6425 16.384C41.9812 17.44 40.8772 17.968 39.3305 17.968C37.7838 17.968 36.6745 17.44 36.0025 16.384C35.3412 15.328 35.0105 13.872 35.0105 12.016ZM41.4425 12.016C41.4425 11.2267 41.3892 10.5653 41.2825 10.032C41.1865 9.488 40.9838 9.04533 40.6745 8.704C40.3758 8.36267 39.9278 8.192 39.3305 8.192C38.7332 8.192 38.2798 8.36267 37.9705 8.704C37.6718 9.04533 37.4692 9.488 37.3625 10.032C37.2665 10.5653 37.2185 11.2267 37.2185 12.016C37.2185 12.8267 37.2665 13.5093 37.3625 14.064C37.4585 14.608 37.6612 15.0507 37.9705 15.392C38.2798 15.7227 38.7332 15.888 39.3305 15.888C39.9278 15.888 40.3812 15.7227 40.6905 15.392C40.9998 15.0507 41.2025 14.608 41.2985 14.064C41.3945 13.5093 41.4425 12.8267 41.4425 12.016ZM44.8742 12.016C44.8742 10.1707 45.2049 8.72533 45.8662 7.68C46.5382 6.63467 47.6476 6.112 49.1942 6.112C50.7409 6.112 51.8449 6.63467 52.5062 7.68C53.1782 8.72533 53.5142 10.1707 53.5142 12.016C53.5142 13.872 53.1782 15.328 52.5062 16.384C51.8449 17.44 50.7409 17.968 49.1942 17.968C47.6476 17.968 46.5382 17.44 45.8662 16.384C45.2049 15.328 44.8742 13.872 44.8742 12.016ZM51.3062 12.016C51.3062 11.2267 51.2529 10.5653 51.1462 10.032C51.0502 9.488 50.8476 9.04533 50.5382 8.704C50.2396 8.36267 49.7916 8.192 49.1942 8.192C48.5969 8.192 48.1436 8.36267 47.8342 8.704C47.5356 9.04533 47.3329 9.488 47.2262 10.032C47.1302 10.5653 47.0822 11.2267 47.0822 12.016C47.0822 12.8267 47.1302 13.5093 47.2262 14.064C47.3222 14.608 47.5249 15.0507 47.8342 15.392C48.1436 15.7227 48.5969 15.888 49.1942 15.888C49.7916 15.888 50.2449 15.7227 50.5542 15.392C50.8636 15.0507 51.0662 14.608 51.1622 14.064C51.2582 13.5093 51.3062 12.8267 51.3062 12.016ZM54.738 12.016C54.738 10.1707 55.0687 8.72533 55.73 7.68C56.402 6.63467 57.5113 6.112 59.058 6.112C60.6047 6.112 61.7087 6.63467 62.37 7.68C63.042 8.72533 63.378 10.1707 63.378 12.016C63.378 13.872 63.042 15.328 62.37 16.384C61.7087 17.44 60.6047 17.968 59.058 17.968C57.5113 17.968 56.402 17.44 55.73 16.384C55.0687 15.328 54.738 13.872 54.738 12.016ZM61.17 12.016C61.17 11.2267 61.1167 10.5653 61.01 10.032C60.914 9.488 60.7113 9.04533 60.402 8.704C60.1033 8.36267 59.6553 8.192 59.058 8.192C58.4607 8.192 58.0073 8.36267 57.698 8.704C57.3993 9.04533 57.1967 9.488 57.09 10.032C56.994 10.5653 56.946 11.2267 56.946 12.016C56.946 12.8267 56.994 13.5093 57.09 14.064C57.186 14.608 57.3887 15.0507 57.698 15.392C58.0073 15.7227 58.4607 15.888 59.058 15.888C59.6553 15.888 60.1087 15.7227 60.418 15.392C60.7273 15.0507 60.93 14.608 61.026 14.064C61.122 13.5093 61.17 12.8267 61.17 12.016Z" fill="white"/>
</svg>
