<svg width="333" height="29" viewBox="0 0 333 29" fill="none" xmlns="http://www.w3.org/2000/svg">
<g id="Group 182">
<g id="btn/btn">
<rect x="257" width="76" height="29" rx="5" fill="#07E57D"/>
<g id="Content">
<path id="text" d="M273.736 11.288V12.2H274.948V13.304H273.664C273.536 14.064 273.22 14.616 272.716 14.96C272.22 15.304 271.468 15.476 270.46 15.476V16.112C270.46 16.488 270.536 16.784 270.688 17C270.848 17.216 271.116 17.324 271.492 17.324C271.852 17.324 272.112 17.224 272.272 17.024C272.432 16.816 272.512 16.516 272.512 16.124H274.072C274.056 16.932 273.828 17.552 273.388 17.984C272.948 18.408 272.32 18.62 271.504 18.62C270.656 18.62 270.008 18.392 269.56 17.936C269.112 17.48 268.888 16.816 268.888 15.944V14.348C269.744 14.348 270.376 14.328 270.784 14.288C271.192 14.24 271.496 14.144 271.696 14C271.896 13.856 272.028 13.624 272.092 13.304H268.504V12.2H272.152V11.288H268.504V10.112H274.948V11.288H273.736ZM275.768 11.3V9.752H278.66V18.5H276.932V11.3H275.768ZM280.32 14.012C280.32 12.628 280.568 11.544 281.064 10.76C281.568 9.976 282.4 9.584 283.56 9.584C284.72 9.584 285.548 9.976 286.044 10.76C286.548 11.544 286.8 12.628 286.8 14.012C286.8 15.404 286.548 16.496 286.044 17.288C285.548 18.08 284.72 18.476 283.56 18.476C282.4 18.476 281.568 18.08 281.064 17.288C280.568 16.496 280.32 15.404 280.32 14.012ZM285.144 14.012C285.144 13.42 285.104 12.924 285.024 12.524C284.952 12.116 284.8 11.784 284.568 11.528C284.344 11.272 284.008 11.144 283.56 11.144C283.112 11.144 282.772 11.272 282.54 11.528C282.316 11.784 282.164 12.116 282.084 12.524C282.012 12.924 281.976 13.42 281.976 14.012C281.976 14.62 282.012 15.132 282.084 15.548C282.156 15.956 282.308 16.288 282.54 16.544C282.772 16.792 283.112 16.916 283.56 16.916C284.008 16.916 284.348 16.792 284.58 16.544C284.812 16.288 284.964 15.956 285.036 15.548C285.108 15.132 285.144 14.62 285.144 14.012ZM288.077 14.012C288.077 12.628 288.325 11.544 288.821 10.76C289.325 9.976 290.157 9.584 291.317 9.584C292.477 9.584 293.305 9.976 293.801 10.76C294.305 11.544 294.557 12.628 294.557 14.012C294.557 15.404 294.305 16.496 293.801 17.288C293.305 18.08 292.477 18.476 291.317 18.476C290.157 18.476 289.325 18.08 288.821 17.288C288.325 16.496 288.077 15.404 288.077 14.012ZM292.901 14.012C292.901 13.42 292.861 12.924 292.781 12.524C292.709 12.116 292.557 11.784 292.325 11.528C292.101 11.272 291.765 11.144 291.317 11.144C290.869 11.144 290.529 11.272 290.297 11.528C290.073 11.784 289.921 12.116 289.841 12.524C289.769 12.924 289.733 13.42 289.733 14.012C289.733 14.62 289.769 15.132 289.841 15.548C289.913 15.956 290.065 16.288 290.297 16.544C290.529 16.792 290.869 16.916 291.317 16.916C291.765 16.916 292.105 16.792 292.337 16.544C292.569 16.288 292.721 15.956 292.793 15.548C292.865 15.132 292.901 14.62 292.901 14.012ZM297.863 16.736L296.459 20.108H295.379L296.159 16.736H297.863ZM298.882 14.012C298.882 12.628 299.13 11.544 299.626 10.76C300.13 9.976 300.962 9.584 302.122 9.584C303.282 9.584 304.11 9.976 304.606 10.76C305.11 11.544 305.362 12.628 305.362 14.012C305.362 15.404 305.11 16.496 304.606 17.288C304.11 18.08 303.282 18.476 302.122 18.476C300.962 18.476 300.13 18.08 299.626 17.288C299.13 16.496 298.882 15.404 298.882 14.012ZM303.706 14.012C303.706 13.42 303.666 12.924 303.586 12.524C303.514 12.116 303.362 11.784 303.13 11.528C302.906 11.272 302.57 11.144 302.122 11.144C301.674 11.144 301.334 11.272 301.102 11.528C300.878 11.784 300.726 12.116 300.646 12.524C300.574 12.924 300.538 13.42 300.538 14.012C300.538 14.62 300.574 15.132 300.646 15.548C300.718 15.956 300.87 16.288 301.102 16.544C301.334 16.792 301.674 16.916 302.122 16.916C302.57 16.916 302.91 16.792 303.142 16.544C303.374 16.288 303.526 15.956 303.598 15.548C303.67 15.132 303.706 14.62 303.706 14.012ZM306.64 14.012C306.64 12.628 306.888 11.544 307.384 10.76C307.888 9.976 308.72 9.584 309.88 9.584C311.04 9.584 311.868 9.976 312.364 10.76C312.868 11.544 313.12 12.628 313.12 14.012C313.12 15.404 312.868 16.496 312.364 17.288C311.868 18.08 311.04 18.476 309.88 18.476C308.72 18.476 307.888 18.08 307.384 17.288C306.888 16.496 306.64 15.404 306.64 14.012ZM311.464 14.012C311.464 13.42 311.424 12.924 311.344 12.524C311.272 12.116 311.12 11.784 310.888 11.528C310.664 11.272 310.328 11.144 309.88 11.144C309.432 11.144 309.092 11.272 308.86 11.528C308.636 11.784 308.484 12.116 308.404 12.524C308.332 12.924 308.296 13.42 308.296 14.012C308.296 14.62 308.332 15.132 308.404 15.548C308.476 15.956 308.628 16.288 308.86 16.544C309.092 16.792 309.432 16.916 309.88 16.916C310.328 16.916 310.668 16.792 310.9 16.544C311.132 16.288 311.284 15.956 311.356 15.548C311.428 15.132 311.464 14.62 311.464 14.012ZM314.398 14.012C314.398 12.628 314.646 11.544 315.142 10.76C315.646 9.976 316.478 9.584 317.638 9.584C318.798 9.584 319.626 9.976 320.122 10.76C320.626 11.544 320.878 12.628 320.878 14.012C320.878 15.404 320.626 16.496 320.122 17.288C319.626 18.08 318.798 18.476 317.638 18.476C316.478 18.476 315.646 18.08 315.142 17.288C314.646 16.496 314.398 15.404 314.398 14.012ZM319.222 14.012C319.222 13.42 319.182 12.924 319.102 12.524C319.03 12.116 318.878 11.784 318.646 11.528C318.422 11.272 318.086 11.144 317.638 11.144C317.19 11.144 316.85 11.272 316.618 11.528C316.394 11.784 316.242 12.116 316.162 12.524C316.09 12.924 316.054 13.42 316.054 14.012C316.054 14.62 316.09 15.132 316.162 15.548C316.234 15.956 316.386 16.288 316.618 16.544C316.85 16.792 317.19 16.916 317.638 16.916C318.086 16.916 318.426 16.792 318.658 16.544C318.89 16.288 319.042 15.956 319.114 15.548C319.186 15.132 319.222 14.62 319.222 14.012Z" fill="#2A2D3C"/>
</g>
</g>
<g id="btn/btn_2">
<rect x="171" width="76" height="29" rx="5" fill="#2A2D3C"/>
<g id="Content_2">
<path id="text_2" d="M189.736 11.288V12.2H190.948V13.304H189.664C189.536 14.064 189.22 14.616 188.716 14.96C188.22 15.304 187.468 15.476 186.46 15.476V16.112C186.46 16.488 186.536 16.784 186.688 17C186.848 17.216 187.116 17.324 187.492 17.324C187.852 17.324 188.112 17.224 188.272 17.024C188.432 16.816 188.512 16.516 188.512 16.124H190.072C190.056 16.932 189.828 17.552 189.388 17.984C188.948 18.408 188.32 18.62 187.504 18.62C186.656 18.62 186.008 18.392 185.56 17.936C185.112 17.48 184.888 16.816 184.888 15.944V14.348C185.744 14.348 186.376 14.328 186.784 14.288C187.192 14.24 187.496 14.144 187.696 14C187.896 13.856 188.028 13.624 188.092 13.304H184.504V12.2H188.152V11.288H184.504V10.112H190.948V11.288H189.736ZM197.852 11.204H193.964V13.256C194.132 13.048 194.372 12.88 194.684 12.752C194.996 12.616 195.328 12.548 195.68 12.548C196.32 12.548 196.844 12.688 197.252 12.968C197.66 13.248 197.956 13.608 198.14 14.048C198.324 14.48 198.416 14.944 198.416 15.44C198.416 16.36 198.152 17.1 197.624 17.66C197.104 18.22 196.36 18.5 195.392 18.5C194.48 18.5 193.752 18.272 193.208 17.816C192.664 17.36 192.356 16.764 192.284 16.028H193.916C193.988 16.348 194.148 16.604 194.396 16.796C194.652 16.988 194.976 17.084 195.368 17.084C195.84 17.084 196.196 16.936 196.436 16.64C196.676 16.344 196.796 15.952 196.796 15.464C196.796 14.968 196.672 14.592 196.424 14.336C196.184 14.072 195.828 13.94 195.356 13.94C195.02 13.94 194.74 14.024 194.516 14.192C194.292 14.36 194.132 14.584 194.036 14.864H192.428V9.728H197.852V11.204ZM199.695 14.012C199.695 12.628 199.943 11.544 200.439 10.76C200.943 9.976 201.775 9.584 202.935 9.584C204.095 9.584 204.923 9.976 205.419 10.76C205.923 11.544 206.175 12.628 206.175 14.012C206.175 15.404 205.923 16.496 205.419 17.288C204.923 18.08 204.095 18.476 202.935 18.476C201.775 18.476 200.943 18.08 200.439 17.288C199.943 16.496 199.695 15.404 199.695 14.012ZM204.519 14.012C204.519 13.42 204.479 12.924 204.399 12.524C204.327 12.116 204.175 11.784 203.943 11.528C203.719 11.272 203.383 11.144 202.935 11.144C202.487 11.144 202.147 11.272 201.915 11.528C201.691 11.784 201.539 12.116 201.459 12.524C201.387 12.924 201.351 13.42 201.351 14.012C201.351 14.62 201.387 15.132 201.459 15.548C201.531 15.956 201.683 16.288 201.915 16.544C202.147 16.792 202.487 16.916 202.935 16.916C203.383 16.916 203.723 16.792 203.955 16.544C204.187 16.288 204.339 15.956 204.411 15.548C204.483 15.132 204.519 14.62 204.519 14.012ZM209.48 16.736L208.076 20.108H206.996L207.776 16.736H209.48ZM210.499 14.012C210.499 12.628 210.747 11.544 211.243 10.76C211.747 9.976 212.579 9.584 213.739 9.584C214.899 9.584 215.727 9.976 216.223 10.76C216.727 11.544 216.979 12.628 216.979 14.012C216.979 15.404 216.727 16.496 216.223 17.288C215.727 18.08 214.899 18.476 213.739 18.476C212.579 18.476 211.747 18.08 211.243 17.288C210.747 16.496 210.499 15.404 210.499 14.012ZM215.323 14.012C215.323 13.42 215.283 12.924 215.203 12.524C215.131 12.116 214.979 11.784 214.747 11.528C214.523 11.272 214.187 11.144 213.739 11.144C213.291 11.144 212.951 11.272 212.719 11.528C212.495 11.784 212.343 12.116 212.263 12.524C212.191 12.924 212.155 13.42 212.155 14.012C212.155 14.62 212.191 15.132 212.263 15.548C212.335 15.956 212.487 16.288 212.719 16.544C212.951 16.792 213.291 16.916 213.739 16.916C214.187 16.916 214.527 16.792 214.759 16.544C214.991 16.288 215.143 15.956 215.215 15.548C215.287 15.132 215.323 14.62 215.323 14.012ZM218.257 14.012C218.257 12.628 218.505 11.544 219.001 10.76C219.505 9.976 220.337 9.584 221.497 9.584C222.657 9.584 223.485 9.976 223.981 10.76C224.485 11.544 224.737 12.628 224.737 14.012C224.737 15.404 224.485 16.496 223.981 17.288C223.485 18.08 222.657 18.476 221.497 18.476C220.337 18.476 219.505 18.08 219.001 17.288C218.505 16.496 218.257 15.404 218.257 14.012ZM223.081 14.012C223.081 13.42 223.041 12.924 222.961 12.524C222.889 12.116 222.737 11.784 222.505 11.528C222.281 11.272 221.945 11.144 221.497 11.144C221.049 11.144 220.709 11.272 220.477 11.528C220.253 11.784 220.101 12.116 220.021 12.524C219.949 12.924 219.913 13.42 219.913 14.012C219.913 14.62 219.949 15.132 220.021 15.548C220.093 15.956 220.245 16.288 220.477 16.544C220.709 16.792 221.049 16.916 221.497 16.916C221.945 16.916 222.285 16.792 222.517 16.544C222.749 16.288 222.901 15.956 222.973 15.548C223.045 15.132 223.081 14.62 223.081 14.012ZM226.015 14.012C226.015 12.628 226.263 11.544 226.759 10.76C227.263 9.976 228.095 9.584 229.255 9.584C230.415 9.584 231.243 9.976 231.739 10.76C232.243 11.544 232.495 12.628 232.495 14.012C232.495 15.404 232.243 16.496 231.739 17.288C231.243 18.08 230.415 18.476 229.255 18.476C228.095 18.476 227.263 18.08 226.759 17.288C226.263 16.496 226.015 15.404 226.015 14.012ZM230.839 14.012C230.839 13.42 230.799 12.924 230.719 12.524C230.647 12.116 230.495 11.784 230.263 11.528C230.039 11.272 229.703 11.144 229.255 11.144C228.807 11.144 228.467 11.272 228.235 11.528C228.011 11.784 227.859 12.116 227.779 12.524C227.707 12.924 227.671 13.42 227.671 14.012C227.671 14.62 227.707 15.132 227.779 15.548C227.851 15.956 228.003 16.288 228.235 16.544C228.467 16.792 228.807 16.916 229.255 16.916C229.703 16.916 230.043 16.792 230.275 16.544C230.507 16.288 230.659 15.956 230.731 15.548C230.803 15.132 230.839 14.62 230.839 14.012Z" fill="#FEBF32"/>
</g>
</g>
<g id="btn/btn_3">
<rect x="86" width="76" height="29" rx="5" fill="#2A2D3C"/>
<g id="Content_3">
<path id="text_3" d="M106.736 11.288V12.2H107.948V13.304H106.664C106.536 14.064 106.22 14.616 105.716 14.96C105.22 15.304 104.468 15.476 103.46 15.476V16.112C103.46 16.488 103.536 16.784 103.688 17C103.848 17.216 104.116 17.324 104.492 17.324C104.852 17.324 105.112 17.224 105.272 17.024C105.432 16.816 105.512 16.516 105.512 16.124H107.072C107.056 16.932 106.828 17.552 106.388 17.984C105.948 18.408 105.32 18.62 104.504 18.62C103.656 18.62 103.008 18.392 102.56 17.936C102.112 17.48 101.888 16.816 101.888 15.944V14.348C102.744 14.348 103.376 14.328 103.784 14.288C104.192 14.24 104.496 14.144 104.696 14C104.896 13.856 105.028 13.624 105.092 13.304H101.504V12.2H105.152V11.288H101.504V10.112H107.948V11.288H106.736ZM108.768 11.3V9.752H111.66V18.5H109.932V11.3H108.768ZM113.32 14.012C113.32 12.628 113.568 11.544 114.064 10.76C114.568 9.976 115.4 9.584 116.56 9.584C117.72 9.584 118.548 9.976 119.044 10.76C119.548 11.544 119.8 12.628 119.8 14.012C119.8 15.404 119.548 16.496 119.044 17.288C118.548 18.08 117.72 18.476 116.56 18.476C115.4 18.476 114.568 18.08 114.064 17.288C113.568 16.496 113.32 15.404 113.32 14.012ZM118.144 14.012C118.144 13.42 118.104 12.924 118.024 12.524C117.952 12.116 117.8 11.784 117.568 11.528C117.344 11.272 117.008 11.144 116.56 11.144C116.112 11.144 115.772 11.272 115.54 11.528C115.316 11.784 115.164 12.116 115.084 12.524C115.012 12.924 114.976 13.42 114.976 14.012C114.976 14.62 115.012 15.132 115.084 15.548C115.156 15.956 115.308 16.288 115.54 16.544C115.772 16.792 116.112 16.916 116.56 16.916C117.008 16.916 117.348 16.792 117.58 16.544C117.812 16.288 117.964 15.956 118.036 15.548C118.108 15.132 118.144 14.62 118.144 14.012ZM123.105 16.736L121.701 20.108H120.621L121.401 16.736H123.105ZM124.124 14.012C124.124 12.628 124.372 11.544 124.868 10.76C125.372 9.976 126.204 9.584 127.364 9.584C128.524 9.584 129.352 9.976 129.848 10.76C130.352 11.544 130.604 12.628 130.604 14.012C130.604 15.404 130.352 16.496 129.848 17.288C129.352 18.08 128.524 18.476 127.364 18.476C126.204 18.476 125.372 18.08 124.868 17.288C124.372 16.496 124.124 15.404 124.124 14.012ZM128.948 14.012C128.948 13.42 128.908 12.924 128.828 12.524C128.756 12.116 128.604 11.784 128.372 11.528C128.148 11.272 127.812 11.144 127.364 11.144C126.916 11.144 126.576 11.272 126.344 11.528C126.12 11.784 125.968 12.116 125.888 12.524C125.816 12.924 125.78 13.42 125.78 14.012C125.78 14.62 125.816 15.132 125.888 15.548C125.96 15.956 126.112 16.288 126.344 16.544C126.576 16.792 126.916 16.916 127.364 16.916C127.812 16.916 128.152 16.792 128.384 16.544C128.616 16.288 128.768 15.956 128.84 15.548C128.912 15.132 128.948 14.62 128.948 14.012ZM131.882 14.012C131.882 12.628 132.13 11.544 132.626 10.76C133.13 9.976 133.962 9.584 135.122 9.584C136.282 9.584 137.11 9.976 137.606 10.76C138.11 11.544 138.362 12.628 138.362 14.012C138.362 15.404 138.11 16.496 137.606 17.288C137.11 18.08 136.282 18.476 135.122 18.476C133.962 18.476 133.13 18.08 132.626 17.288C132.13 16.496 131.882 15.404 131.882 14.012ZM136.706 14.012C136.706 13.42 136.666 12.924 136.586 12.524C136.514 12.116 136.362 11.784 136.13 11.528C135.906 11.272 135.57 11.144 135.122 11.144C134.674 11.144 134.334 11.272 134.102 11.528C133.878 11.784 133.726 12.116 133.646 12.524C133.574 12.924 133.538 13.42 133.538 14.012C133.538 14.62 133.574 15.132 133.646 15.548C133.718 15.956 133.87 16.288 134.102 16.544C134.334 16.792 134.674 16.916 135.122 16.916C135.57 16.916 135.91 16.792 136.142 16.544C136.374 16.288 136.526 15.956 136.598 15.548C136.67 15.132 136.706 14.62 136.706 14.012ZM139.64 14.012C139.64 12.628 139.888 11.544 140.384 10.76C140.888 9.976 141.72 9.584 142.88 9.584C144.04 9.584 144.868 9.976 145.364 10.76C145.868 11.544 146.12 12.628 146.12 14.012C146.12 15.404 145.868 16.496 145.364 17.288C144.868 18.08 144.04 18.476 142.88 18.476C141.72 18.476 140.888 18.08 140.384 17.288C139.888 16.496 139.64 15.404 139.64 14.012ZM144.464 14.012C144.464 13.42 144.424 12.924 144.344 12.524C144.272 12.116 144.12 11.784 143.888 11.528C143.664 11.272 143.328 11.144 142.88 11.144C142.432 11.144 142.092 11.272 141.86 11.528C141.636 11.784 141.484 12.116 141.404 12.524C141.332 12.924 141.296 13.42 141.296 14.012C141.296 14.62 141.332 15.132 141.404 15.548C141.476 15.956 141.628 16.288 141.86 16.544C142.092 16.792 142.432 16.916 142.88 16.916C143.328 16.916 143.668 16.792 143.9 16.544C144.132 16.288 144.284 15.956 144.356 15.548C144.428 15.132 144.464 14.62 144.464 14.012Z" fill="#FEBF32"/>
</g>
</g>
<g id="btn/btn_4">
<rect width="76" height="29" rx="5" fill="#2A2D3C"/>
<g id="Content_4">
<path id="text_4" d="M22.736 11.288V12.2H23.948V13.304H22.664C22.536 14.064 22.22 14.616 21.716 14.96C21.22 15.304 20.468 15.476 19.46 15.476V16.112C19.46 16.488 19.536 16.784 19.688 17C19.848 17.216 20.116 17.324 20.492 17.324C20.852 17.324 21.112 17.224 21.272 17.024C21.432 16.816 21.512 16.516 21.512 16.124H23.072C23.056 16.932 22.828 17.552 22.388 17.984C21.948 18.408 21.32 18.62 20.504 18.62C19.656 18.62 19.008 18.392 18.56 17.936C18.112 17.48 17.888 16.816 17.888 15.944V14.348C18.744 14.348 19.376 14.328 19.784 14.288C20.192 14.24 20.496 14.144 20.696 14C20.896 13.856 21.028 13.624 21.092 13.304H17.504V12.2H21.152V11.288H17.504V10.112H23.948V11.288H22.736ZM30.8519 11.204H26.9639V13.256C27.1319 13.048 27.3719 12.88 27.6839 12.752C27.9959 12.616 28.3279 12.548 28.6799 12.548C29.3199 12.548 29.8439 12.688 30.2519 12.968C30.6599 13.248 30.9559 13.608 31.1399 14.048C31.3239 14.48 31.4159 14.944 31.4159 15.44C31.4159 16.36 31.1519 17.1 30.6239 17.66C30.1039 18.22 29.3599 18.5 28.3919 18.5C27.4799 18.5 26.7519 18.272 26.2079 17.816C25.6639 17.36 25.3559 16.764 25.2839 16.028H26.9159C26.9879 16.348 27.1479 16.604 27.3959 16.796C27.6519 16.988 27.9759 17.084 28.3679 17.084C28.8399 17.084 29.1959 16.936 29.4359 16.64C29.6759 16.344 29.7959 15.952 29.7959 15.464C29.7959 14.968 29.6719 14.592 29.4239 14.336C29.1839 14.072 28.8279 13.94 28.3559 13.94C28.0199 13.94 27.7399 14.024 27.5159 14.192C27.2919 14.36 27.1319 14.584 27.0359 14.864H25.4279V9.728H30.8519V11.204ZM34.7226 16.736L33.3186 20.108H32.2386L33.0186 16.736H34.7226ZM35.7415 14.012C35.7415 12.628 35.9895 11.544 36.4855 10.76C36.9895 9.976 37.8215 9.584 38.9815 9.584C40.1415 9.584 40.9695 9.976 41.4655 10.76C41.9695 11.544 42.2215 12.628 42.2215 14.012C42.2215 15.404 41.9695 16.496 41.4655 17.288C40.9695 18.08 40.1415 18.476 38.9815 18.476C37.8215 18.476 36.9895 18.08 36.4855 17.288C35.9895 16.496 35.7415 15.404 35.7415 14.012ZM40.5655 14.012C40.5655 13.42 40.5255 12.924 40.4455 12.524C40.3735 12.116 40.2215 11.784 39.9895 11.528C39.7655 11.272 39.4295 11.144 38.9815 11.144C38.5335 11.144 38.1935 11.272 37.9615 11.528C37.7375 11.784 37.5855 12.116 37.5055 12.524C37.4335 12.924 37.3975 13.42 37.3975 14.012C37.3975 14.62 37.4335 15.132 37.5055 15.548C37.5775 15.956 37.7295 16.288 37.9615 16.544C38.1935 16.792 38.5335 16.916 38.9815 16.916C39.4295 16.916 39.7695 16.792 40.0015 16.544C40.2335 16.288 40.3855 15.956 40.4575 15.548C40.5295 15.132 40.5655 14.62 40.5655 14.012ZM43.4993 14.012C43.4993 12.628 43.7473 11.544 44.2433 10.76C44.7473 9.976 45.5793 9.584 46.7393 9.584C47.8993 9.584 48.7273 9.976 49.2233 10.76C49.7273 11.544 49.9793 12.628 49.9793 14.012C49.9793 15.404 49.7273 16.496 49.2233 17.288C48.7273 18.08 47.8993 18.476 46.7393 18.476C45.5793 18.476 44.7473 18.08 44.2433 17.288C43.7473 16.496 43.4993 15.404 43.4993 14.012ZM48.3233 14.012C48.3233 13.42 48.2833 12.924 48.2033 12.524C48.1313 12.116 47.9793 11.784 47.7473 11.528C47.5233 11.272 47.1873 11.144 46.7393 11.144C46.2913 11.144 45.9513 11.272 45.7193 11.528C45.4953 11.784 45.3433 12.116 45.2633 12.524C45.1913 12.924 45.1553 13.42 45.1553 14.012C45.1553 14.62 45.1913 15.132 45.2633 15.548C45.3353 15.956 45.4873 16.288 45.7193 16.544C45.9513 16.792 46.2913 16.916 46.7393 16.916C47.1873 16.916 47.5273 16.792 47.7593 16.544C47.9913 16.288 48.1433 15.956 48.2153 15.548C48.2873 15.132 48.3233 14.62 48.3233 14.012ZM51.2571 14.012C51.2571 12.628 51.5051 11.544 52.0011 10.76C52.5051 9.976 53.3371 9.584 54.4971 9.584C55.6571 9.584 56.4851 9.976 56.9811 10.76C57.4851 11.544 57.7371 12.628 57.7371 14.012C57.7371 15.404 57.4851 16.496 56.9811 17.288C56.4851 18.08 55.6571 18.476 54.4971 18.476C53.3371 18.476 52.5051 18.08 52.0011 17.288C51.5051 16.496 51.2571 15.404 51.2571 14.012ZM56.0811 14.012C56.0811 13.42 56.0411 12.924 55.9611 12.524C55.8891 12.116 55.7371 11.784 55.5051 11.528C55.2811 11.272 54.9451 11.144 54.4971 11.144C54.0491 11.144 53.7091 11.272 53.4771 11.528C53.2531 11.784 53.1011 12.116 53.0211 12.524C52.9491 12.924 52.9131 13.42 52.9131 14.012C52.9131 14.62 52.9491 15.132 53.0211 15.548C53.0931 15.956 53.2451 16.288 53.4771 16.544C53.7091 16.792 54.0491 16.916 54.4971 16.916C54.9451 16.916 55.2851 16.792 55.5171 16.544C55.7491 16.288 55.9011 15.956 55.9731 15.548C56.0451 15.132 56.0811 14.62 56.0811 14.012Z" fill="#FEBF32"/>
</g>
</g>
</g>
</svg>
