<svg width="357" height="209" viewBox="0 0 357 209" fill="none" xmlns="http://www.w3.org/2000/svg">
<g id="Group 95">
<path id="Card" d="M0 24C0 15.5992 0 11.3988 1.6349 8.19014C3.073 5.36771 5.36771 3.073 8.19014 1.6349C11.3988 0 15.5992 0 24 0H333C341.401 0 345.601 0 348.81 1.6349C351.632 3.073 353.927 5.36771 355.365 8.19014C357 11.3988 357 15.5992 357 24V185C357 193.401 357 197.601 355.365 200.81C353.927 203.632 351.632 205.927 348.81 207.365C345.601 209 341.401 209 333 209H24C15.5992 209 11.3988 209 8.19014 207.365C5.36771 205.927 3.073 203.632 1.6349 200.81C0 197.601 0 193.401 0 185V24Z" fill="url(#paint0_linear_1_1362)"/>
<mask id="mask0_1_1362" style="mask-type:alpha" maskUnits="userSpaceOnUse" x="0" y="0" width="357" height="209">
<path id="Card_2" d="M0 0H357V209H0V0Z" fill="url(#paint1_linear_1_1362)"/>
</mask>
<g mask="url(#mask0_1_1362)">
<circle id="Ellipse 15" opacity="0.5" cx="326.5" cy="13.5" r="99" stroke="#FEBF32" stroke-width="25"/>
<circle id="Ellipse 16" opacity="0.5" cx="64.5" cy="209.5" r="99" stroke="#FEBF32" stroke-width="25"/>
<path id="&#226;&#130;&#185;4210.00" d="M38.906 58.629V60.609H41.711V64.041H38.708C38.356 65.999 37.498 67.495 36.134 68.529C34.77 69.541 32.779 70.047 30.161 70.047V71.367C30.161 72.225 30.326 72.896 30.656 73.38C30.986 73.842 31.558 74.073 32.372 74.073C33.142 74.073 33.692 73.842 34.022 73.38C34.352 72.918 34.517 72.225 34.517 71.301H39.731C39.643 73.523 38.983 75.25 37.751 76.482C36.541 77.714 34.792 78.33 32.504 78.33C30.04 78.33 28.148 77.692 26.828 76.416C25.53 75.118 24.881 73.182 24.881 70.608V66.351C27.169 66.351 28.852 66.307 29.93 66.219C31.03 66.109 31.844 65.9 32.372 65.592C32.922 65.262 33.285 64.745 33.461 64.041H24.254V60.609H33.626V58.629H24.254V54.834H41.711V58.629H38.906ZM45.4947 73.71V69.156L55.9227 54.24H62.2257V68.826H64.9317V73.71H62.2257V78H56.5827V73.71H45.4947ZM56.9787 60.444L51.4347 68.826H56.9787V60.444ZM68.6527 73.479C69.4007 72.885 69.7417 72.61 69.6757 72.654C71.8317 70.872 73.5257 69.409 74.7577 68.265C76.0117 67.121 77.0677 65.922 77.9257 64.668C78.7837 63.414 79.2127 62.193 79.2127 61.005C79.2127 60.103 79.0037 59.399 78.5857 58.893C78.1677 58.387 77.5407 58.134 76.7047 58.134C75.8687 58.134 75.2087 58.453 74.7247 59.091C74.2627 59.707 74.0317 60.587 74.0317 61.731H68.5867C68.6307 59.861 69.0267 58.299 69.7747 57.045C70.5447 55.791 71.5457 54.867 72.7777 54.273C74.0317 53.679 75.4177 53.382 76.9357 53.382C79.5537 53.382 81.5227 54.053 82.8427 55.395C84.1847 56.737 84.8557 58.486 84.8557 60.642C84.8557 62.996 84.0527 65.185 82.4467 67.209C80.8407 69.211 78.7947 71.169 76.3087 73.083H85.2187V77.67H68.6527V73.479ZM88.2642 59.157V53.91H97.4052V78H91.5312V59.157H88.2642ZM102.42 65.625C102.42 61.841 103.146 58.86 104.598 56.682C106.072 54.504 108.437 53.415 111.693 53.415C114.949 53.415 117.303 54.504 118.755 56.682C120.229 58.86 120.966 61.841 120.966 65.625C120.966 69.453 120.229 72.456 118.755 74.634C117.303 76.812 114.949 77.901 111.693 77.901C108.437 77.901 106.072 76.812 104.598 74.634C103.146 72.456 102.42 69.453 102.42 65.625ZM115.422 65.625C115.422 63.403 115.18 61.698 114.696 60.51C114.212 59.3 113.211 58.695 111.693 58.695C110.175 58.695 109.174 59.3 108.69 60.51C108.206 61.698 107.964 63.403 107.964 65.625C107.964 67.121 108.052 68.364 108.228 69.354C108.404 70.322 108.756 71.114 109.284 71.73C109.834 72.324 110.637 72.621 111.693 72.621C112.749 72.621 113.541 72.324 114.069 71.73C114.619 71.114 114.982 70.322 115.158 69.354C115.334 68.364 115.422 67.121 115.422 65.625ZM128.304 78.264C127.314 78.264 126.5 77.978 125.862 77.406C125.246 76.812 124.938 76.086 124.938 75.228C124.938 74.348 125.246 73.611 125.862 73.017C126.5 72.423 127.314 72.126 128.304 72.126C129.272 72.126 130.064 72.423 130.68 73.017C131.318 73.611 131.637 74.348 131.637 75.228C131.637 76.086 131.318 76.812 130.68 77.406C130.064 77.978 129.272 78.264 128.304 78.264ZM135.571 65.625C135.571 61.841 136.297 58.86 137.749 56.682C139.223 54.504 141.588 53.415 144.844 53.415C148.1 53.415 150.454 54.504 151.906 56.682C153.38 58.86 154.117 61.841 154.117 65.625C154.117 69.453 153.38 72.456 151.906 74.634C150.454 76.812 148.1 77.901 144.844 77.901C141.588 77.901 139.223 76.812 137.749 74.634C136.297 72.456 135.571 69.453 135.571 65.625ZM148.573 65.625C148.573 63.403 148.331 61.698 147.847 60.51C147.363 59.3 146.362 58.695 144.844 58.695C143.326 58.695 142.325 59.3 141.841 60.51C141.357 61.698 141.115 63.403 141.115 65.625C141.115 67.121 141.203 68.364 141.379 69.354C141.555 70.322 141.907 71.114 142.435 71.73C142.985 72.324 143.788 72.621 144.844 72.621C145.9 72.621 146.692 72.324 147.22 71.73C147.77 71.114 148.133 70.322 148.309 69.354C148.485 68.364 148.573 67.121 148.573 65.625ZM158.254 65.625C158.254 61.841 158.98 58.86 160.432 56.682C161.906 54.504 164.271 53.415 167.527 53.415C170.783 53.415 173.137 54.504 174.589 56.682C176.063 58.86 176.8 61.841 176.8 65.625C176.8 69.453 176.063 72.456 174.589 74.634C173.137 76.812 170.783 77.901 167.527 77.901C164.271 77.901 161.906 76.812 160.432 74.634C158.98 72.456 158.254 69.453 158.254 65.625ZM171.256 65.625C171.256 63.403 171.014 61.698 170.53 60.51C170.046 59.3 169.045 58.695 167.527 58.695C166.009 58.695 165.008 59.3 164.524 60.51C164.04 61.698 163.798 63.403 163.798 65.625C163.798 67.121 163.886 68.364 164.062 69.354C164.238 70.322 164.59 71.114 165.118 71.73C165.668 72.324 166.471 72.621 167.527 72.621C168.583 72.621 169.375 72.324 169.903 71.73C170.453 71.114 170.816 70.322 170.992 69.354C171.168 68.364 171.256 67.121 171.256 65.625Z" fill="white"/>
<path id="Your Balance" d="M32.44 27.88L28.76 34.968V39H26.936V34.968L23.24 27.88H25.272L27.848 33.336L30.424 27.88H32.44ZM37.6315 39.144C36.7995 39.144 36.0475 38.9573 35.3755 38.584C34.7035 38.2 34.1755 37.6667 33.7915 36.984C33.4075 36.2907 33.2155 35.4907 33.2155 34.584C33.2155 33.688 33.4128 32.8933 33.8075 32.2C34.2022 31.5067 34.7408 30.9733 35.4235 30.6C36.1062 30.2267 36.8688 30.04 37.7115 30.04C38.5542 30.04 39.3168 30.2267 39.9995 30.6C40.6822 30.9733 41.2208 31.5067 41.6155 32.2C42.0102 32.8933 42.2075 33.688 42.2075 34.584C42.2075 35.48 42.0048 36.2747 41.5995 36.968C41.1942 37.6613 40.6395 38.2 39.9355 38.584C39.2422 38.9573 38.4742 39.144 37.6315 39.144ZM37.6315 37.56C38.1008 37.56 38.5382 37.448 38.9435 37.224C39.3595 37 39.6955 36.664 39.9515 36.216C40.2075 35.768 40.3355 35.224 40.3355 34.584C40.3355 33.944 40.2128 33.4053 39.9675 32.968C39.7222 32.52 39.3968 32.184 38.9915 31.96C38.5862 31.736 38.1488 31.624 37.6795 31.624C37.2102 31.624 36.7728 31.736 36.3675 31.96C35.9728 32.184 35.6582 32.52 35.4235 32.968C35.1888 33.4053 35.0715 33.944 35.0715 34.584C35.0715 35.5333 35.3115 36.2693 35.7915 36.792C36.2822 37.304 36.8955 37.56 37.6315 37.56ZM51.9146 30.184V39H50.0906V37.96C49.8026 38.3227 49.424 38.6107 48.9546 38.824C48.496 39.0267 48.0053 39.128 47.4826 39.128C46.7893 39.128 46.1653 38.984 45.6106 38.696C45.0666 38.408 44.6346 37.9813 44.3146 37.416C44.0053 36.8507 43.8506 36.168 43.8506 35.368V30.184H45.6586V35.096C45.6586 35.8853 45.856 36.4933 46.2506 36.92C46.6453 37.336 47.184 37.544 47.8666 37.544C48.5493 37.544 49.088 37.336 49.4826 36.92C49.888 36.4933 50.0906 35.8853 50.0906 35.096V30.184H51.9146ZM56.0653 31.464C56.3319 31.016 56.6839 30.6693 57.1213 30.424C57.5693 30.168 58.0973 30.04 58.7053 30.04V31.928H58.2413C57.5266 31.928 56.9826 32.1093 56.6093 32.472C56.2466 32.8347 56.0653 33.464 56.0653 34.36V39H54.2413V30.184H56.0653V31.464ZM70.3301 33.288C70.9275 33.3947 71.4341 33.7093 71.8501 34.232C72.2661 34.7547 72.4741 35.3467 72.4741 36.008C72.4741 36.5733 72.3248 37.0853 72.0261 37.544C71.7381 37.992 71.3168 38.3493 70.7621 38.616C70.2075 38.872 69.5621 39 68.8261 39H64.3781V27.88H68.6181C69.3755 27.88 70.0261 28.008 70.5701 28.264C71.1141 28.52 71.5248 28.8667 71.8021 29.304C72.0795 29.7307 72.2181 30.2107 72.2181 30.744C72.2181 31.384 72.0475 31.9173 71.7061 32.344C71.3648 32.7707 70.9061 33.0853 70.3301 33.288ZM66.2021 32.552H68.4581C69.0555 32.552 69.5195 32.4187 69.8501 32.152C70.1915 31.8747 70.3621 31.48 70.3621 30.968C70.3621 30.4667 70.1915 30.0773 69.8501 29.8C69.5195 29.512 69.0555 29.368 68.4581 29.368H66.2021V32.552ZM68.6661 37.512C69.2848 37.512 69.7701 37.3627 70.1221 37.064C70.4741 36.7653 70.6501 36.3493 70.6501 35.816C70.6501 35.272 70.4635 34.84 70.0901 34.52C69.7168 34.2 69.2208 34.04 68.6021 34.04H66.2021V37.512H68.6661ZM73.7683 34.552C73.7683 33.6667 73.9496 32.8827 74.3123 32.2C74.6856 31.5173 75.1869 30.9893 75.8163 30.616C76.4563 30.232 77.1603 30.04 77.9283 30.04C78.6216 30.04 79.2243 30.1787 79.7363 30.456C80.2589 30.7227 80.6749 31.0587 80.9843 31.464V30.184H82.8243V39H80.9843V37.688C80.6749 38.104 80.2536 38.4507 79.7203 38.728C79.1869 39.0053 78.5789 39.144 77.8963 39.144C77.1389 39.144 76.4456 38.952 75.8163 38.568C75.1869 38.1733 74.6856 37.6293 74.3123 36.936C73.9496 36.232 73.7683 35.4373 73.7683 34.552ZM80.9843 34.584C80.9843 33.976 80.8563 33.448 80.6003 33C80.3549 32.552 80.0296 32.2107 79.6243 31.976C79.2189 31.7413 78.7816 31.624 78.3123 31.624C77.8429 31.624 77.4056 31.7413 77.0003 31.976C76.5949 32.2 76.2643 32.536 76.0083 32.984C75.7629 33.4213 75.6403 33.944 75.6403 34.552C75.6403 35.16 75.7629 35.6933 76.0083 36.152C76.2643 36.6107 76.5949 36.9627 77.0003 37.208C77.4163 37.4427 77.8536 37.56 78.3123 37.56C78.7816 37.56 79.2189 37.4427 79.6243 37.208C80.0296 36.9733 80.3549 36.632 80.6003 36.184C80.8563 35.7253 80.9843 35.192 80.9843 34.584ZM86.964 27.16V39H85.14V27.16H86.964ZM88.6708 34.552C88.6708 33.6667 88.8521 32.8827 89.2148 32.2C89.5881 31.5173 90.0894 30.9893 90.7188 30.616C91.3588 30.232 92.0628 30.04 92.8308 30.04C93.5241 30.04 94.1268 30.1787 94.6388 30.456C95.1614 30.7227 95.5774 31.0587 95.8868 31.464V30.184H97.7268V39H95.8868V37.688C95.5774 38.104 95.1561 38.4507 94.6228 38.728C94.0894 39.0053 93.4814 39.144 92.7988 39.144C92.0414 39.144 91.3481 38.952 90.7188 38.568C90.0894 38.1733 89.5881 37.6293 89.2148 36.936C88.8521 36.232 88.6708 35.4373 88.6708 34.552ZM95.8868 34.584C95.8868 33.976 95.7588 33.448 95.5028 33C95.2574 32.552 94.9321 32.2107 94.5268 31.976C94.1214 31.7413 93.6841 31.624 93.2148 31.624C92.7454 31.624 92.3081 31.7413 91.9028 31.976C91.4974 32.2 91.1668 32.536 90.9108 32.984C90.6654 33.4213 90.5428 33.944 90.5428 34.552C90.5428 35.16 90.6654 35.6933 90.9108 36.152C91.1668 36.6107 91.4974 36.9627 91.9028 37.208C92.3188 37.4427 92.7561 37.56 93.2148 37.56C93.6841 37.56 94.1214 37.4427 94.5268 37.208C94.9321 36.9733 95.2574 36.632 95.5028 36.184C95.7588 35.7253 95.8868 35.192 95.8868 34.584ZM104.49 30.04C105.184 30.04 105.802 30.184 106.346 30.472C106.901 30.76 107.333 31.1867 107.642 31.752C107.952 32.3173 108.106 33 108.106 33.8V39H106.298V34.072C106.298 33.2827 106.101 32.68 105.706 32.264C105.312 31.8373 104.773 31.624 104.09 31.624C103.408 31.624 102.864 31.8373 102.458 32.264C102.064 32.68 101.866 33.2827 101.866 34.072V39H100.042V30.184H101.866V31.192C102.165 30.8293 102.544 30.5467 103.002 30.344C103.472 30.1413 103.968 30.04 104.49 30.04ZM109.745 34.584C109.745 33.6773 109.926 32.8827 110.289 32.2C110.662 31.5067 111.174 30.9733 111.825 30.6C112.476 30.2267 113.222 30.04 114.065 30.04C115.132 30.04 116.012 30.296 116.705 30.808C117.409 31.3093 117.884 32.0293 118.129 32.968H116.161C116.001 32.5307 115.745 32.1893 115.393 31.944C115.041 31.6987 114.598 31.576 114.065 31.576C113.318 31.576 112.721 31.8427 112.273 32.376C111.836 32.8987 111.617 33.6347 111.617 34.584C111.617 35.5333 111.836 36.2747 112.273 36.808C112.721 37.3413 113.318 37.608 114.065 37.608C115.121 37.608 115.82 37.144 116.161 36.216H118.129C117.873 37.112 117.393 37.8267 116.689 38.36C115.985 38.8827 115.11 39.144 114.065 39.144C113.222 39.144 112.476 38.9573 111.825 38.584C111.174 38.2 110.662 37.6667 110.289 36.984C109.926 36.2907 109.745 35.4907 109.745 34.584ZM127.947 34.376C127.947 34.7067 127.926 35.0053 127.883 35.272H121.147C121.2 35.976 121.462 36.5413 121.931 36.968C122.4 37.3947 122.976 37.608 123.659 37.608C124.64 37.608 125.334 37.1973 125.739 36.376H127.707C127.44 37.1867 126.955 37.8533 126.251 38.376C125.558 38.888 124.694 39.144 123.659 39.144C122.816 39.144 122.059 38.9573 121.387 38.584C120.726 38.2 120.203 37.6667 119.819 36.984C119.446 36.2907 119.259 35.4907 119.259 34.584C119.259 33.6773 119.44 32.8827 119.803 32.2C120.176 31.5067 120.694 30.9733 121.355 30.6C122.027 30.2267 122.795 30.04 123.659 30.04C124.491 30.04 125.232 30.2213 125.883 30.584C126.534 30.9467 127.04 31.4587 127.403 32.12C127.766 32.7707 127.947 33.5227 127.947 34.376ZM126.043 33.8C126.032 33.128 125.792 32.5893 125.323 32.184C124.854 31.7787 124.272 31.576 123.579 31.576C122.95 31.576 122.411 31.7787 121.963 32.184C121.515 32.5787 121.248 33.1173 121.163 33.8H126.043Z" fill="white"/>
<g id="Group 94">
<path id="Path" d="M283 32.7941V66.9412C283 69.7362 285.242 72 288.011 72H323.087C325.855 72 328.098 69.7362 328.098 66.9412V41.6471C328.098 38.8521 325.855 36.5882 323.087 36.5882H286.758C284.684 36.5882 283 34.8885 283 32.7941V32.7941C283 30.6998 284.684 29 286.758 29H318.076" stroke="white" stroke-width="2.5" stroke-linecap="round" stroke-linejoin="round"/>
<g id="indian-rupee-svgrepo-com 1">
<path id="Vector" d="M299.78 45.7805H312.366" stroke="white" stroke-width="2" stroke-linecap="round" stroke-linejoin="round"/>
<path id="Vector_2" d="M299.78 51.0244H312.366" stroke="white" stroke-width="2" stroke-linecap="round" stroke-linejoin="round"/>
<path id="Vector_3" d="M299.78 56.2683L308.695 64.6585" stroke="white" stroke-width="2" stroke-linecap="round" stroke-linejoin="round"/>
<path id="Vector_4" d="M299.78 56.2683H302.927" stroke="white" stroke-width="2" stroke-linecap="round" stroke-linejoin="round"/>
<path id="Vector_5" d="M302.927 56.2683C309.919 56.2683 309.919 45.7805 302.927 45.7805" stroke="white" stroke-width="2" stroke-linecap="round" stroke-linejoin="round"/>
</g>
</g>
</g>
</g>
<defs>
<linearGradient id="paint0_linear_1_1362" x1="178.5" y1="0" x2="178.5" y2="209" gradientUnits="userSpaceOnUse">
<stop stop-color="#07C86B"/>
<stop offset="1" stop-color="#159A5A"/>
</linearGradient>
<linearGradient id="paint1_linear_1_1362" x1="178.5" y1="-25.9956" x2="178.5" y2="300.257" gradientUnits="userSpaceOnUse">
<stop stop-color="#2A2D3C"/>
<stop offset="1" stop-color="#0D5030"/>
</linearGradient>
</defs>
</svg>
