<svg width="43" height="43" viewBox="0 0 43 43" fill="none" xmlns="http://www.w3.org/2000/svg">
    <path d="M37.625 17.9167C37.8603 17.9167 38.0933 17.8704 38.3107 17.7804C38.5281 17.6904 38.7256 17.5584 38.892 17.392C39.0584 17.2257 39.1904 17.0281 39.2804 16.8107C39.3704 16.5933 39.4167 16.3603 39.4166 16.125V10.75C39.4168 10.3741 39.2986 10.0076 39.0787 9.70267C38.8589 9.39772 38.5486 9.16974 38.1919 9.05107L22.0669 3.67607C21.6989 3.55359 21.3011 3.55359 20.9331 3.67607L4.80808 9.05107C4.45136 9.16974 4.14107 9.39772 3.92123 9.70267C3.70139 10.0076 3.58316 10.3741 3.58331 10.75V16.125C3.58325 16.3603 3.62955 16.5933 3.71957 16.8107C3.80959 17.0281 3.94156 17.2257 4.10794 17.392C4.27433 17.5584 4.47186 17.6904 4.68927 17.7804C4.90667 17.8704 5.13968 17.9167 5.37498 17.9167H7.16665V30.7885C6.12163 31.1566 5.21618 31.8391 4.57458 32.7424C3.93299 33.6457 3.58672 34.7254 3.58331 35.8333V39.4167C3.58325 39.652 3.62955 39.885 3.71957 40.1024C3.80959 40.3198 3.94156 40.5173 4.10794 40.6837C4.27433 40.8501 4.47186 40.9821 4.68927 41.0721C4.90667 41.1621 5.13968 41.2084 5.37498 41.2083H37.625C37.8603 41.2084 38.0933 41.1621 38.3107 41.0721C38.5281 40.9821 38.7256 40.8501 38.892 40.6837C39.0584 40.5173 39.1904 40.3198 39.2804 40.1024C39.3704 39.885 39.4167 39.652 39.4166 39.4167V35.8333C39.4132 34.7254 39.067 33.6457 38.4254 32.7424C37.7838 31.8391 36.8783 31.1566 35.8333 30.7885V17.9167H37.625ZM35.8333 37.625H7.16665V35.8333C7.16712 35.3583 7.35604 34.9029 7.69194 34.567C8.02784 34.2311 8.48328 34.0421 8.95831 34.0417H34.0416C34.5167 34.0421 34.9721 34.2311 35.308 34.567C35.6439 34.9029 35.8328 35.3583 35.8333 35.8333V37.625ZM10.75 30.4583V17.9167H14.3333V30.4583H10.75ZM17.9166 30.4583V17.9167H25.0833V30.4583H17.9166ZM28.6666 30.4583V17.9167H32.25V30.4583H28.6666ZM7.16665 14.3333V12.0413L21.5 7.26288L35.8333 12.0413V14.3333H7.16665Z" fill="#FEBF32"/>
    </svg>
    