<svg width="327" height="48" viewBox="0 0 327 48" fill="none" xmlns="http://www.w3.org/2000/svg">
<g id="btn/btn" filter="url(#filter0_d_1_1456)">
<rect width="327" height="48" rx="8" fill="#07E67D" shape-rendering="crispEdges"/>
<path id="text" d="M126.685 24.4C126.685 23.3013 126.93 22.32 127.421 21.456C127.922 20.5813 128.6 19.904 129.453 19.424C130.317 18.9333 131.282 18.688 132.349 18.688C133.597 18.688 134.69 19.008 135.629 19.648C136.568 20.288 137.224 21.1733 137.597 22.304H135.021C134.765 21.7707 134.402 21.3707 133.933 21.104C133.474 20.8373 132.941 20.704 132.333 20.704C131.682 20.704 131.101 20.8587 130.589 21.168C130.088 21.4667 129.693 21.8933 129.405 22.448C129.128 23.0027 128.989 23.6533 128.989 24.4C128.989 25.136 129.128 25.7867 129.405 26.352C129.693 26.9067 130.088 27.3387 130.589 27.648C131.101 27.9467 131.682 28.096 132.333 28.096C132.941 28.096 133.474 27.9627 133.933 27.696C134.402 27.4187 134.765 27.0133 135.021 26.48H137.597C137.224 27.6213 136.568 28.512 135.629 29.152C134.701 29.7813 133.608 30.096 132.349 30.096C131.282 30.096 130.317 29.856 129.453 29.376C128.6 28.8853 127.922 28.208 127.421 27.344C126.93 26.48 126.685 25.4987 126.685 24.4ZM143.446 30.144C142.593 30.144 141.825 29.9573 141.142 29.584C140.46 29.2 139.921 28.6613 139.526 27.968C139.142 27.2747 138.95 26.4747 138.95 25.568C138.95 24.6613 139.148 23.8613 139.542 23.168C139.948 22.4747 140.497 21.9413 141.19 21.568C141.884 21.184 142.657 20.992 143.51 20.992C144.364 20.992 145.137 21.184 145.83 21.568C146.524 21.9413 147.068 22.4747 147.462 23.168C147.868 23.8613 148.07 24.6613 148.07 25.568C148.07 26.4747 147.862 27.2747 147.446 27.968C147.041 28.6613 146.486 29.2 145.782 29.584C145.089 29.9573 144.31 30.144 143.446 30.144ZM143.446 28.192C143.852 28.192 144.23 28.096 144.582 27.904C144.945 27.7013 145.233 27.4027 145.446 27.008C145.66 26.6133 145.766 26.1333 145.766 25.568C145.766 24.7253 145.542 24.08 145.094 23.632C144.657 23.1733 144.118 22.944 143.478 22.944C142.838 22.944 142.3 23.1733 141.862 23.632C141.436 24.08 141.222 24.7253 141.222 25.568C141.222 26.4107 141.43 27.0613 141.846 27.52C142.273 27.968 142.806 28.192 143.446 28.192ZM154.625 21.008C155.681 21.008 156.535 21.344 157.185 22.016C157.836 22.6773 158.161 23.6053 158.161 24.8V30H155.921V25.104C155.921 24.4 155.745 23.8613 155.393 23.488C155.041 23.104 154.561 22.912 153.953 22.912C153.335 22.912 152.844 23.104 152.481 23.488C152.129 23.8613 151.953 24.4 151.953 25.104V30H149.713V21.136H151.953V22.24C152.252 21.856 152.631 21.5573 153.089 21.344C153.559 21.12 154.071 21.008 154.625 21.008ZM162.9 22.976V27.264C162.9 27.5627 162.969 27.7813 163.108 27.92C163.257 28.048 163.502 28.112 163.844 28.112H164.884V30H163.476C161.588 30 160.644 29.0827 160.644 27.248V22.976H159.588V21.136H160.644V18.944H162.9V21.136H164.884V22.976H162.9ZM167.631 20.08C167.236 20.08 166.905 19.9573 166.639 19.712C166.383 19.456 166.255 19.1413 166.255 18.768C166.255 18.3947 166.383 18.0853 166.639 17.84C166.905 17.584 167.236 17.456 167.631 17.456C168.025 17.456 168.351 17.584 168.607 17.84C168.873 18.0853 169.007 18.3947 169.007 18.768C169.007 19.1413 168.873 19.456 168.607 19.712C168.351 19.9573 168.025 20.08 167.631 20.08ZM168.735 21.136V30H166.495V21.136H168.735ZM175.86 21.008C176.916 21.008 177.769 21.344 178.42 22.016C179.07 22.6773 179.396 23.6053 179.396 24.8V30H177.156V25.104C177.156 24.4 176.98 23.8613 176.628 23.488C176.276 23.104 175.796 22.912 175.188 22.912C174.569 22.912 174.078 23.104 173.716 23.488C173.364 23.8613 173.188 24.4 173.188 25.104V30H170.948V21.136H173.188V22.24C173.486 21.856 173.865 21.5573 174.324 21.344C174.793 21.12 175.305 21.008 175.86 21.008ZM189.894 21.136V30H187.638V28.88C187.35 29.264 186.971 29.568 186.502 29.792C186.043 30.0053 185.542 30.112 184.998 30.112C184.305 30.112 183.691 29.968 183.158 29.68C182.625 29.3813 182.203 28.9493 181.894 28.384C181.595 27.808 181.446 27.1253 181.446 26.336V21.136H183.686V26.016C183.686 26.72 183.862 27.264 184.214 27.648C184.566 28.0213 185.046 28.208 185.654 28.208C186.273 28.208 186.758 28.0213 187.11 27.648C187.462 27.264 187.638 26.72 187.638 26.016V21.136H189.894ZM200.344 25.376C200.344 25.696 200.323 25.984 200.28 26.24H193.8C193.853 26.88 194.077 27.3813 194.472 27.744C194.867 28.1067 195.352 28.288 195.928 28.288C196.76 28.288 197.352 27.9307 197.704 27.216H200.12C199.864 28.0693 199.373 28.7733 198.648 29.328C197.923 29.872 197.032 30.144 195.976 30.144C195.123 30.144 194.355 29.9573 193.672 29.584C193 29.2 192.472 28.6613 192.088 27.968C191.715 27.2747 191.528 26.4747 191.528 25.568C191.528 24.6507 191.715 23.8453 192.088 23.152C192.461 22.4587 192.984 21.9253 193.656 21.552C194.328 21.1787 195.101 20.992 195.976 20.992C196.819 20.992 197.571 21.1733 198.232 21.536C198.904 21.8987 199.421 22.416 199.784 23.088C200.157 23.7493 200.344 24.512 200.344 25.376ZM198.024 24.736C198.013 24.16 197.805 23.7013 197.4 23.36C196.995 23.008 196.499 22.832 195.912 22.832C195.357 22.832 194.888 23.0027 194.504 23.344C194.131 23.6747 193.901 24.1387 193.816 24.736H198.024Z" fill="#2A2D3C"/>
</g>
<defs>
<filter id="filter0_d_1_1456" x="-30" y="-30" width="387" height="108" filterUnits="userSpaceOnUse" color-interpolation-filters="sRGB">
<feFlood flood-opacity="0" result="BackgroundImageFix"/>
<feColorMatrix in="SourceAlpha" type="matrix" values="0 0 0 0 0 0 0 0 0 0 0 0 0 0 0 0 0 0 127 0" result="hardAlpha"/>
<feOffset/>
<feGaussianBlur stdDeviation="15"/>
<feComposite in2="hardAlpha" operator="out"/>
<feColorMatrix type="matrix" values="0 0 0 0 0.054902 0 0 0 0 0.678431 0 0 0 0 0.384314 0 0 0 0.3 0"/>
<feBlend mode="normal" in2="BackgroundImageFix" result="effect1_dropShadow_1_1456"/>
<feBlend mode="normal" in="SourceGraphic" in2="effect1_dropShadow_1_1456" result="shape"/>
</filter>
</defs>
</svg>
