<svg width="26" height="26" viewBox="0 0 26 26" fill="none" xmlns="http://www.w3.org/2000/svg">
<g id="copy-files-svgrepo-com 1">
<g id="Group">
<path id="Vector" d="M24.0445 8.40277C24.0417 8.36309 24.0342 8.32482 24.0211 8.28701C24.0155 8.27114 24.0118 8.25573 24.0048 8.24033C23.9819 8.19085 23.9539 8.14417 23.9142 8.10449V8.10402C23.9142 8.10402 23.9138 8.10356 23.9138 8.10309L15.946 0.136771C15.9059 0.0961597 15.8583 0.0676852 15.8083 0.0448123C15.7957 0.038744 15.7817 0.0354764 15.7682 0.0308085C15.728 0.0172714 15.687 0.00840231 15.6445 0.00606833C15.6347 0.00513474 15.6258 0 15.6155 0H10.352C8.6351 0 7.23891 1.39665 7.23891 3.11352V3.89494H5.06225C3.34538 3.89494 1.94873 5.29158 1.94873 7.00846V22.8869C1.94873 24.6038 3.34538 26 5.06225 26H15.6478C17.3642 26 18.7608 24.6038 18.7608 22.8869V22.1051H20.9379C22.6548 22.1051 24.051 20.7089 24.051 18.992V8.43451C24.051 8.42331 24.0454 8.41397 24.0445 8.40277ZM16.0828 1.59364L22.4569 7.96772H18.2627C17.0607 7.96772 16.0828 6.98978 16.0828 5.78779V1.59364ZM17.8272 22.8865C17.8272 24.088 16.8493 25.0659 15.6478 25.0659H5.06225C3.86025 25.0659 2.88232 24.088 2.88232 22.8865V7.00846C2.88232 5.80646 3.86025 4.82852 5.06225 4.82852H7.70571H9.8595V9.68272C9.8595 11.3996 11.2557 12.7958 12.9721 12.7958H17.8268V21.6378L17.8272 22.8865ZM17.1672 11.8622H12.9726C11.771 11.8622 10.7936 10.8847 10.7936 9.68272V5.48857L17.1672 11.8622ZM20.9379 21.1715H18.7608V12.329C18.7608 12.3182 18.7552 12.3084 18.7543 12.2977C18.7515 12.258 18.7445 12.2198 18.7314 12.1815C18.7258 12.1661 18.7216 12.1507 18.7146 12.1348C18.6922 12.0858 18.6637 12.0391 18.624 11.9994C18.624 11.999 18.6236 11.9985 18.6236 11.9985L10.6563 4.03171C10.6157 3.99156 10.5686 3.96309 10.5186 3.94021C10.5051 3.93415 10.4915 3.93041 10.4775 3.92574C10.4374 3.91174 10.3972 3.90334 10.3548 3.901C10.345 3.90007 10.3361 3.89494 10.3258 3.89494H8.17204V3.11352C8.17204 1.91152 9.14997 0.933589 10.3515 0.933589H15.1488V5.78825C15.1488 7.50513 16.5454 8.90178 18.2623 8.90178H23.1165V18.992C23.1174 20.1935 22.1395 21.1715 20.9379 21.1715Z" fill="#FEBF32"/>
</g>
</g>
</svg>
