<svg width="325" height="48" viewBox="0 0 325 48" fill="none" xmlns="http://www.w3.org/2000/svg">
<g id="Group 138">
<g id="btn/btn">
<rect x="169" width="156" height="48" rx="8" fill="#242632"/>
<path id="text" d="M227.96 30.112C227.181 30.112 226.477 29.9787 225.848 29.712C225.229 29.4453 224.739 29.0613 224.376 28.56C224.013 28.0587 223.827 27.4667 223.816 26.784H226.216C226.248 27.2427 226.408 27.6053 226.696 27.872C226.995 28.1387 227.4 28.272 227.912 28.272C228.435 28.272 228.845 28.1493 229.144 27.904C229.443 27.648 229.592 27.3173 229.592 26.912C229.592 26.5813 229.491 26.3093 229.288 26.096C229.085 25.8827 228.829 25.7173 228.52 25.6C228.221 25.472 227.805 25.3333 227.272 25.184C226.547 24.9707 225.955 24.7627 225.496 24.56C225.048 24.3467 224.659 24.032 224.328 23.616C224.008 23.1893 223.848 22.624 223.848 21.92C223.848 21.2587 224.013 20.6827 224.344 20.192C224.675 19.7013 225.139 19.328 225.736 19.072C226.333 18.8053 227.016 18.672 227.784 18.672C228.936 18.672 229.869 18.9547 230.584 19.52C231.309 20.0747 231.709 20.8533 231.784 21.856H229.32C229.299 21.472 229.133 21.1573 228.824 20.912C228.525 20.656 228.125 20.528 227.624 20.528C227.187 20.528 226.835 20.64 226.568 20.864C226.312 21.088 226.184 21.4133 226.184 21.84C226.184 22.1387 226.28 22.3893 226.472 22.592C226.675 22.784 226.92 22.944 227.208 23.072C227.507 23.1893 227.923 23.328 228.456 23.488C229.181 23.7013 229.773 23.9147 230.232 24.128C230.691 24.3413 231.085 24.6613 231.416 25.088C231.747 25.5147 231.912 26.0747 231.912 26.768C231.912 27.3653 231.757 27.92 231.448 28.432C231.139 28.944 230.685 29.3547 230.088 29.664C229.491 29.9627 228.781 30.112 227.96 30.112ZM238.846 21.008C239.518 21.008 240.115 21.1573 240.638 21.456C241.161 21.744 241.566 22.176 241.854 22.752C242.153 23.3173 242.302 24 242.302 24.8V30H240.062V25.104C240.062 24.4 239.886 23.8613 239.534 23.488C239.182 23.104 238.702 22.912 238.094 22.912C237.475 22.912 236.985 23.104 236.622 23.488C236.27 23.8613 236.094 24.4 236.094 25.104V30H233.854V18.16H236.094V22.24C236.382 21.856 236.766 21.5573 237.246 21.344C237.726 21.12 238.259 21.008 238.846 21.008ZM243.856 25.536C243.856 24.64 244.032 23.8453 244.384 23.152C244.747 22.4587 245.232 21.9253 245.84 21.552C246.459 21.1787 247.147 20.992 247.904 20.992C248.565 20.992 249.141 21.1253 249.632 21.392C250.133 21.6587 250.533 21.9947 250.832 22.4V21.136H253.088V30H250.832V28.704C250.544 29.12 250.144 29.4667 249.632 29.744C249.131 30.0107 248.549 30.144 247.888 30.144C247.141 30.144 246.459 29.952 245.84 29.568C245.232 29.184 244.747 28.6453 244.384 27.952C244.032 27.248 243.856 26.4427 243.856 25.536ZM250.832 25.568C250.832 25.024 250.725 24.56 250.512 24.176C250.299 23.7813 250.011 23.4827 249.648 23.28C249.285 23.0667 248.896 22.96 248.48 22.96C248.064 22.96 247.68 23.0613 247.328 23.264C246.976 23.4667 246.688 23.7653 246.464 24.16C246.251 24.544 246.144 25.0027 246.144 25.536C246.144 26.0693 246.251 26.5387 246.464 26.944C246.688 27.3387 246.976 27.6427 247.328 27.856C247.691 28.0693 248.075 28.176 248.48 28.176C248.896 28.176 249.285 28.0747 249.648 27.872C250.011 27.6587 250.299 27.36 250.512 26.976C250.725 26.5813 250.832 26.112 250.832 25.568ZM257.516 22.512C257.804 22.0427 258.177 21.6747 258.636 21.408C259.105 21.1413 259.639 21.008 260.236 21.008V23.36H259.644C258.94 23.36 258.407 23.5253 258.044 23.856C257.692 24.1867 257.516 24.7627 257.516 25.584V30H255.276V21.136H257.516V22.512ZM269.985 25.376C269.985 25.696 269.963 25.984 269.921 26.24H263.441C263.494 26.88 263.718 27.3813 264.113 27.744C264.507 28.1067 264.993 28.288 265.569 28.288C266.401 28.288 266.993 27.9307 267.345 27.216H269.761C269.505 28.0693 269.014 28.7733 268.289 29.328C267.563 29.872 266.673 30.144 265.617 30.144C264.763 30.144 263.995 29.9573 263.313 29.584C262.641 29.2 262.113 28.6613 261.729 27.968C261.355 27.2747 261.169 26.4747 261.169 25.568C261.169 24.6507 261.355 23.8453 261.729 23.152C262.102 22.4587 262.625 21.9253 263.297 21.552C263.969 21.1787 264.742 20.992 265.617 20.992C266.459 20.992 267.211 21.1733 267.873 21.536C268.545 21.8987 269.062 22.416 269.425 23.088C269.798 23.7493 269.985 24.512 269.985 25.376ZM267.665 24.736C267.654 24.16 267.446 23.7013 267.041 23.36C266.635 23.008 266.139 22.832 265.553 22.832C264.998 22.832 264.529 23.0027 264.145 23.344C263.771 23.6747 263.542 24.1387 263.457 24.736H267.665Z" fill="#ABAFC4"/>
</g>
<g id="btn/btn_2">
<rect width="156" height="48" rx="8" fill="#FEBF32"/>
<path id="text_2" d="M69.868 18.832V30H67.628V25.248H62.844V30H60.604V18.832H62.844V23.424H67.628V18.832H69.868ZM80.3128 25.376C80.3128 25.696 80.2914 25.984 80.2488 26.24H73.7688C73.8221 26.88 74.0461 27.3813 74.4408 27.744C74.8354 28.1067 75.3208 28.288 75.8968 28.288C76.7288 28.288 77.3208 27.9307 77.6728 27.216H80.0888C79.8328 28.0693 79.3421 28.7733 78.6168 29.328C77.8914 29.872 77.0008 30.144 75.9448 30.144C75.0914 30.144 74.3234 29.9573 73.6408 29.584C72.9688 29.2 72.4408 28.6613 72.0568 27.968C71.6834 27.2747 71.4967 26.4747 71.4967 25.568C71.4967 24.6507 71.6834 23.8453 72.0568 23.152C72.4301 22.4587 72.9528 21.9253 73.6248 21.552C74.2968 21.1787 75.0701 20.992 75.9448 20.992C76.7874 20.992 77.5394 21.1733 78.2008 21.536C78.8728 21.8987 79.3901 22.416 79.7528 23.088C80.1261 23.7493 80.3128 24.512 80.3128 25.376ZM77.9928 24.736C77.9821 24.16 77.7741 23.7013 77.3688 23.36C76.9634 23.008 76.4674 22.832 75.8808 22.832C75.3261 22.832 74.8568 23.0027 74.4728 23.344C74.0994 23.6747 73.8701 24.1387 73.7848 24.736H77.9928ZM84.1878 18.16V30H81.9478V18.16H84.1878ZM88.6409 22.416C88.9289 22.0107 89.3235 21.6747 89.8249 21.408C90.3369 21.1307 90.9182 20.992 91.5689 20.992C92.3262 20.992 93.0089 21.1787 93.6169 21.552C94.2355 21.9253 94.7209 22.4587 95.0729 23.152C95.4355 23.8347 95.6169 24.6293 95.6169 25.536C95.6169 26.4427 95.4355 27.248 95.0729 27.952C94.7209 28.6453 94.2355 29.184 93.6169 29.568C93.0089 29.952 92.3262 30.144 91.5689 30.144C90.9182 30.144 90.3422 30.0107 89.8409 29.744C89.3502 29.4773 88.9502 29.1413 88.6409 28.736V34.224H86.4009V21.136H88.6409V22.416ZM93.3289 25.536C93.3289 25.0027 93.2169 24.544 92.9929 24.16C92.7795 23.7653 92.4915 23.4667 92.1289 23.264C91.7769 23.0613 91.3929 22.96 90.9769 22.96C90.5715 22.96 90.1875 23.0667 89.8249 23.28C89.4729 23.4827 89.1849 23.7813 88.9609 24.176C88.7475 24.5707 88.6409 25.0347 88.6409 25.568C88.6409 26.1013 88.7475 26.5653 88.9609 26.96C89.1849 27.3547 89.4729 27.6587 89.8249 27.872C90.1875 28.0747 90.5715 28.176 90.9769 28.176C91.3929 28.176 91.7769 28.0693 92.1289 27.856C92.4915 27.6427 92.7795 27.3387 92.9929 26.944C93.2169 26.5493 93.3289 26.08 93.3289 25.536Z" fill="#17171A"/>
</g>
</g>
</svg>
