<svg width="60" height="15" viewBox="0 0 60 15" fill="none" xmlns="http://www.w3.org/2000/svg">
<path id="Popular" d="M8.67 5.77C8.67 6.33 8.535 6.855 8.265 7.345C8.005 7.835 7.59 8.23 7.02 8.53C6.46 8.83 5.75 8.98 4.89 8.98H3.135V13H1.035V2.53H4.89C5.7 2.53 6.39 2.67 6.96 2.95C7.53 3.23 7.955 3.615 8.235 4.105C8.525 4.595 8.67 5.15 8.67 5.77ZM4.8 7.285C5.38 7.285 5.81 7.155 6.09 6.895C6.37 6.625 6.51 6.25 6.51 5.77C6.51 4.75 5.94 4.24 4.8 4.24H3.135V7.285H4.8ZM13.851 13.135C13.051 13.135 12.331 12.96 11.691 12.61C11.051 12.25 10.546 11.745 10.176 11.095C9.81598 10.445 9.63598 9.695 9.63598 8.845C9.63598 7.995 9.82098 7.245 10.191 6.595C10.571 5.945 11.086 5.445 11.736 5.095C12.386 4.735 13.111 4.555 13.911 4.555C14.711 4.555 15.436 4.735 16.086 5.095C16.736 5.445 17.246 5.945 17.616 6.595C17.996 7.245 18.186 7.995 18.186 8.845C18.186 9.695 17.991 10.445 17.601 11.095C17.221 11.745 16.701 12.25 16.041 12.61C15.391 12.96 14.661 13.135 13.851 13.135ZM13.851 11.305C14.231 11.305 14.586 11.215 14.916 11.035C15.256 10.845 15.526 10.565 15.726 10.195C15.926 9.825 16.026 9.375 16.026 8.845C16.026 8.055 15.816 7.45 15.396 7.03C14.986 6.6 14.481 6.385 13.881 6.385C13.281 6.385 12.776 6.6 12.366 7.03C11.966 7.45 11.766 8.055 11.766 8.845C11.766 9.635 11.961 10.245 12.351 10.675C12.751 11.095 13.251 11.305 13.851 11.305ZM21.8264 5.89C22.0964 5.51 22.4664 5.195 22.9364 4.945C23.4164 4.685 23.9614 4.555 24.5714 4.555C25.2814 4.555 25.9214 4.73 26.4914 5.08C27.0714 5.43 27.5264 5.93 27.8564 6.58C28.1964 7.22 28.3664 7.965 28.3664 8.815C28.3664 9.665 28.1964 10.42 27.8564 11.08C27.5264 11.73 27.0714 12.235 26.4914 12.595C25.9214 12.955 25.2814 13.135 24.5714 13.135C23.9614 13.135 23.4214 13.01 22.9514 12.76C22.4914 12.51 22.1164 12.195 21.8264 11.815V16.96H19.7264V4.69H21.8264V5.89ZM26.2214 8.815C26.2214 8.315 26.1164 7.885 25.9064 7.525C25.7064 7.155 25.4364 6.875 25.0964 6.685C24.7664 6.495 24.4064 6.4 24.0164 6.4C23.6364 6.4 23.2764 6.5 22.9364 6.7C22.6064 6.89 22.3364 7.17 22.1264 7.54C21.9264 7.91 21.8264 8.345 21.8264 8.845C21.8264 9.345 21.9264 9.78 22.1264 10.15C22.3364 10.52 22.6064 10.805 22.9364 11.005C23.2764 11.195 23.6364 11.29 24.0164 11.29C24.4064 11.29 24.7664 11.19 25.0964 10.99C25.4364 10.79 25.7064 10.505 25.9064 10.135C26.1164 9.765 26.2214 9.325 26.2214 8.815ZM37.7374 4.69V13H35.6224V11.95C35.3524 12.31 34.9974 12.595 34.5574 12.805C34.1274 13.005 33.6574 13.105 33.1474 13.105C32.4974 13.105 31.9224 12.97 31.4224 12.7C30.9224 12.42 30.5274 12.015 30.2374 11.485C29.9574 10.945 29.8174 10.305 29.8174 9.565V4.69H31.9174V9.265C31.9174 9.925 32.0824 10.435 32.4124 10.795C32.7424 11.145 33.1924 11.32 33.7624 11.32C34.3424 11.32 34.7974 11.145 35.1274 10.795C35.4574 10.435 35.6224 9.925 35.6224 9.265V4.69H37.7374ZM41.9094 1.9V13H39.8094V1.9H41.9094ZM43.4442 8.815C43.4442 7.975 43.6092 7.23 43.9392 6.58C44.2792 5.93 44.7342 5.43 45.3042 5.08C45.8842 4.73 46.5292 4.555 47.2392 4.555C47.8592 4.555 48.3992 4.68 48.8592 4.93C49.3292 5.18 49.7042 5.495 49.9842 5.875V4.69H52.0992V13H49.9842V11.785C49.7142 12.175 49.3392 12.5 48.8592 12.76C48.3892 13.01 47.8442 13.135 47.2242 13.135C46.5242 13.135 45.8842 12.955 45.3042 12.595C44.7342 12.235 44.2792 11.73 43.9392 11.08C43.6092 10.42 43.4442 9.665 43.4442 8.815ZM49.9842 8.845C49.9842 8.335 49.8842 7.9 49.6842 7.54C49.4842 7.17 49.2142 6.89 48.8742 6.7C48.5342 6.5 48.1692 6.4 47.7792 6.4C47.3892 6.4 47.0292 6.495 46.6992 6.685C46.3692 6.875 46.0992 7.155 45.8892 7.525C45.6892 7.885 45.5892 8.315 45.5892 8.815C45.5892 9.315 45.6892 9.755 45.8892 10.135C46.0992 10.505 46.3692 10.79 46.6992 10.99C47.0392 11.19 47.3992 11.29 47.7792 11.29C48.1692 11.29 48.5342 11.195 48.8742 11.005C49.2142 10.805 49.4842 10.525 49.6842 10.165C49.8842 9.795 49.9842 9.355 49.9842 8.845ZM56.2502 5.98C56.5202 5.54 56.8702 5.195 57.3002 4.945C57.7402 4.695 58.2402 4.57 58.8002 4.57V6.775H58.2452C57.5852 6.775 57.0852 6.93 56.7452 7.24C56.4152 7.55 56.2502 8.09 56.2502 8.86V13H54.1502V4.69H56.2502V5.98Z" fill="url(#paint0_linear_1_1457)"/>
<defs>
<linearGradient id="paint0_linear_1_1457" x1="0" y1="0" x2="60.8479" y2="5.34193" gradientUnits="userSpaceOnUse">
<stop stop-color="#72F6D1"/>
<stop offset="0.21875" stop-color="#07E57D"/>
<stop offset="0.557292" stop-color="#A0ED8D"/>
<stop offset="0.817708" stop-color="#FED365"/>
<stop offset="1" stop-color="#FAA49E"/>
</linearGradient>
</defs>
</svg>
