<svg width="45" height="43" viewBox="0 0 45 43" fill="none" xmlns="http://www.w3.org/2000/svg">
    <path d="M2 5.44938V36.4938C2 39.0349 4.03861 41.093 6.55556 41.093H38.4444C40.9614 41.093 43 39.0349 43 36.4938V13.4979C43 10.9569 40.9614 8.89877 38.4444 8.89877H5.41667C3.53067 8.89877 2 7.35344 2 5.44938V5.44938C2 3.54532 3.53067 2 5.41667 2H33.8889" stroke="#07E57D" stroke-width="2.87449" stroke-linecap="round" stroke-linejoin="round"/>
    <path d="M17.2556 17.2556H28.6975" stroke="#07E57D" stroke-width="2.29959" stroke-linecap="round" stroke-linejoin="round"/>
    <path d="M17.2556 22.0232H28.6975" stroke="#07E57D" stroke-width="2.29959" stroke-linecap="round" stroke-linejoin="round"/>
    <path d="M17.2556 26.7903L25.3603 34.4182" stroke="#07E57D" stroke-width="2.29959" stroke-linecap="round" stroke-linejoin="round"/>
    <path d="M17.2556 26.7903H20.1161" stroke="#07E57D" stroke-width="2.29959" stroke-linecap="round" stroke-linejoin="round"/>
    <path d="M20.116 26.7905C26.4729 26.7905 26.4729 17.2556 20.116 17.2556" stroke="#07E57D" stroke-width="2.29959" stroke-linecap="round" stroke-linejoin="round"/>
    </svg>
    