<svg width="33" height="32" viewBox="0 0 33 32" fill="none" xmlns="http://www.w3.org/2000/svg">
<path id="SM" d="M7.45642 24.1182C6.40343 24.1182 5.45984 23.9473 4.62565 23.6054C3.79146 23.2635 3.12137 22.7575 2.61539 22.0874C2.12308 21.4173 1.86325 20.6105 1.8359 19.6669H5.56924C5.62394 20.2003 5.80855 20.6105 6.12308 20.8977C6.43761 21.1712 6.84787 21.3079 7.35385 21.3079C7.87351 21.3079 8.28377 21.1917 8.58462 20.9592C8.88548 20.7131 9.0359 20.378 9.0359 19.9541C9.0359 19.5985 8.91283 19.3045 8.66667 19.072C8.43419 18.8396 8.14018 18.6481 7.78462 18.4977C7.44274 18.3473 6.95043 18.1763 6.3077 17.9849C5.37778 17.6977 4.61881 17.4105 4.03078 17.1233C3.44274 16.8361 2.93676 16.4122 2.51283 15.8515C2.0889 15.2908 1.87693 14.5592 1.87693 13.6567C1.87693 12.3165 2.3624 11.2703 3.33334 10.5182C4.30428 9.75239 5.56924 9.36948 7.12821 9.36948C8.71454 9.36948 9.99317 9.75239 10.9641 10.5182C11.935 11.2703 12.4547 12.3233 12.5231 13.6772H8.72821C8.70086 13.2122 8.52992 12.8498 8.21539 12.59C7.90086 12.3165 7.49744 12.1797 7.00513 12.1797C6.5812 12.1797 6.23932 12.296 5.97949 12.5285C5.71966 12.7473 5.58975 13.0686 5.58975 13.4926C5.58975 13.9575 5.80855 14.3199 6.24616 14.5797C6.68377 14.8396 7.36753 15.1199 8.29744 15.4208C9.22736 15.7353 9.97949 16.0361 10.5539 16.3233C11.1419 16.6105 11.6479 17.0276 12.0718 17.5746C12.4957 18.1216 12.7077 18.8259 12.7077 19.6874C12.7077 20.5079 12.4957 21.2532 12.0718 21.9233C11.6615 22.5934 11.0598 23.1267 10.2667 23.5233C9.47351 23.9199 8.53676 24.1182 7.45642 24.1182ZM31.174 9.57461V23.9746H27.6664V15.3387L24.4458 23.9746H21.6151L18.374 15.3182V23.9746H14.8664V9.57461H19.0099L23.051 19.5438L27.051 9.57461H31.174Z" fill="white"/>
</svg>
