<svg width="40" height="40" viewBox="0 0 40 40" fill="none" xmlns="http://www.w3.org/2000/svg">
<g id="icon/user">
<g id="Group">
<path id="Vector" d="M29.9265 10.018C31.2885 11.3799 32.3688 12.9967 33.1059 14.7762C33.8429 16.5557 34.2223 18.4629 34.2223 20.3889C34.2223 22.315 33.8429 24.2222 33.1059 26.0017C32.3688 27.7811 31.2885 29.398 29.9265 30.7599C28.5646 32.1218 26.9477 33.2022 25.1683 33.9392C23.3888 34.6763 21.4816 35.0557 19.5556 35.0557C17.6295 35.0557 15.7223 34.6763 13.9428 33.9392C12.1634 33.2022 10.5465 32.1218 9.18459 30.7599C6.43404 28.0093 4.88879 24.2788 4.88879 20.3889C4.88879 16.4991 6.43404 12.7685 9.18459 10.018C11.9351 7.26741 15.6657 5.72217 19.5556 5.72217C23.4454 5.72217 27.176 7.26741 29.9265 10.018" stroke="#FEBF32" stroke-width="1.83333" stroke-linecap="round" stroke-linejoin="round"/>
<path id="Vector_2" d="M28.204 32.2151C27.5782 29.2166 23.9637 26.9074 19.5555 26.9074C15.1474 26.9074 11.5329 29.2166 10.9071 32.2151" stroke="#FEBF32" stroke-width="1.83333" stroke-linecap="round" stroke-linejoin="round"/>
<path id="Vector_3" d="M23.012 13.6732C23.4868 14.1223 23.8667 14.6619 24.1293 15.2603C24.3919 15.8587 24.5318 16.5036 24.5409 17.157C24.55 17.8104 24.428 18.459 24.1822 19.0644C23.9363 19.6699 23.5716 20.2199 23.1095 20.682C22.6474 21.144 22.0974 21.5088 21.492 21.7546C20.8865 22.0005 20.2379 22.1225 19.5845 22.1134C18.9311 22.1043 18.2862 21.9643 17.6878 21.7017C17.0895 21.4391 16.5498 21.0592 16.1008 20.5845C15.2372 19.6577 14.7671 18.4319 14.7894 17.1654C14.8117 15.8988 15.3248 14.6904 16.2206 13.7947C17.1163 12.8989 18.3247 12.3858 19.5913 12.3635C20.8578 12.3411 22.0836 12.8113 23.0104 13.6749" stroke="#FEBF32" stroke-width="1.83333" stroke-linecap="round" stroke-linejoin="round"/>
</g>
</g>
</svg>
