<svg width="156" height="48" viewBox="0 0 156 48" fill="none" xmlns="http://www.w3.org/2000/svg">
<g id="btn/btn">
<rect width="156" height="48" rx="8" fill="#242632"/>
<path id="text" d="M54.032 18.832L50.912 30H48.272L46.176 22.048L43.984 30L41.36 30.016L38.352 18.832H40.752L42.72 27.504L44.992 18.832H47.488L49.632 27.456L51.616 18.832H54.032ZM56.6306 20.08C56.236 20.08 55.9053 19.9573 55.6386 19.712C55.3826 19.456 55.2546 19.1413 55.2546 18.768C55.2546 18.3947 55.3826 18.0853 55.6386 17.84C55.9053 17.584 56.236 17.456 56.6306 17.456C57.0253 17.456 57.3506 17.584 57.6066 17.84C57.8733 18.0853 58.0066 18.3947 58.0066 18.768C58.0066 19.1413 57.8733 19.456 57.6066 19.712C57.3506 19.9573 57.0253 20.08 56.6306 20.08ZM57.7346 21.136V30H55.4946V21.136H57.7346ZM62.5558 22.976V27.264C62.5558 27.5627 62.6251 27.7813 62.7638 27.92C62.9131 28.048 63.1584 28.112 63.4998 28.112H64.5398V30H63.1318C61.2438 30 60.2998 29.0827 60.2998 27.248V22.976H59.2438V21.136H60.2998V18.944H62.5558V21.136H64.5398V22.976H62.5558ZM71.1429 21.008C71.8149 21.008 72.4122 21.1573 72.9349 21.456C73.4575 21.744 73.8629 22.176 74.1509 22.752C74.4495 23.3173 74.5989 24 74.5989 24.8V30H72.3589V25.104C72.3589 24.4 72.1829 23.8613 71.8309 23.488C71.4789 23.104 70.9989 22.912 70.3909 22.912C69.7722 22.912 69.2815 23.104 68.9189 23.488C68.5669 23.8613 68.3909 24.4 68.3909 25.104V30H66.1509V18.16H68.3909V22.24C68.6789 21.856 69.0629 21.5573 69.5429 21.344C70.0229 21.12 70.5562 21.008 71.1429 21.008ZM76.153 25.536C76.153 24.64 76.329 23.8453 76.681 23.152C77.0437 22.4587 77.5343 21.9253 78.153 21.552C78.7717 21.1787 79.4597 20.992 80.217 20.992C80.793 20.992 81.3423 21.12 81.865 21.376C82.3877 21.6213 82.8037 21.952 83.113 22.368V18.16H85.385V30H83.113V28.688C82.8357 29.1253 82.4463 29.4773 81.945 29.744C81.4437 30.0107 80.8623 30.144 80.201 30.144C79.4543 30.144 78.7717 29.952 78.153 29.568C77.5343 29.184 77.0437 28.6453 76.681 27.952C76.329 27.248 76.153 26.4427 76.153 25.536ZM83.129 25.568C83.129 25.024 83.0223 24.56 82.809 24.176C82.5957 23.7813 82.3077 23.4827 81.945 23.28C81.5823 23.0667 81.193 22.96 80.777 22.96C80.361 22.96 79.977 23.0613 79.625 23.264C79.273 23.4667 78.985 23.7653 78.761 24.16C78.5477 24.544 78.441 25.0027 78.441 25.536C78.441 26.0693 78.5477 26.5387 78.761 26.944C78.985 27.3387 79.273 27.6427 79.625 27.856C79.9877 28.0693 80.3717 28.176 80.777 28.176C81.193 28.176 81.5823 28.0747 81.945 27.872C82.3077 27.6587 82.5957 27.36 82.809 26.976C83.0223 26.5813 83.129 26.112 83.129 25.568ZM89.8128 22.512C90.1008 22.0427 90.4741 21.6747 90.9328 21.408C91.4021 21.1413 91.9354 21.008 92.5328 21.008V23.36H91.9408C91.2368 23.36 90.7034 23.5253 90.3408 23.856C89.9888 24.1867 89.8128 24.7627 89.8128 25.584V30H87.5728V21.136H89.8128V22.512ZM93.4655 25.536C93.4655 24.64 93.6415 23.8453 93.9935 23.152C94.3562 22.4587 94.8415 21.9253 95.4495 21.552C96.0682 21.1787 96.7562 20.992 97.5135 20.992C98.1748 20.992 98.7508 21.1253 99.2415 21.392C99.7428 21.6587 100.143 21.9947 100.442 22.4V21.136H102.698V30H100.442V28.704C100.154 29.12 99.7535 29.4667 99.2415 29.744C98.7402 30.0107 98.1588 30.144 97.4975 30.144C96.7508 30.144 96.0682 29.952 95.4495 29.568C94.8415 29.184 94.3562 28.6453 93.9935 27.952C93.6415 27.248 93.4655 26.4427 93.4655 25.536ZM100.442 25.568C100.442 25.024 100.335 24.56 100.122 24.176C99.9082 23.7813 99.6202 23.4827 99.2575 23.28C98.8948 23.0667 98.5055 22.96 98.0895 22.96C97.6735 22.96 97.2895 23.0613 96.9375 23.264C96.5855 23.4667 96.2975 23.7653 96.0735 24.16C95.8602 24.544 95.7535 25.0027 95.7535 25.536C95.7535 26.0693 95.8602 26.5387 96.0735 26.944C96.2975 27.3387 96.5855 27.6427 96.9375 27.856C97.3002 28.0693 97.6842 28.176 98.0895 28.176C98.5055 28.176 98.8948 28.0747 99.2575 27.872C99.6202 27.6587 99.9082 27.36 100.122 26.976C100.335 26.5813 100.442 26.112 100.442 25.568ZM117.173 21.136L114.581 30H112.165L110.549 23.808L108.933 30H106.501L103.893 21.136H106.165L107.733 27.888L109.429 21.136H111.797L113.461 27.872L115.029 21.136H117.173Z" fill="#ABAFC4"/>
</g>
</svg>
