<svg width="55" height="15" viewBox="0 0 55 15" fill="none" xmlns="http://www.w3.org/2000/svg">
<path id="&#226;&#130;&#185; 3,000" d="M7.648 2.53561V3.75161H9.264V5.22361H7.552C7.38133 6.23694 6.96 6.97294 6.288 7.43161C5.62667 7.89028 4.624 8.11961 3.28 8.11961V8.96761C3.28 9.46894 3.38133 9.86361 3.584 10.1516C3.79733 10.4396 4.15467 10.5836 4.656 10.5836C5.136 10.5836 5.48267 10.4503 5.696 10.1836C5.90933 9.90628 6.016 9.50628 6.016 8.98361H8.096C8.07467 10.0609 7.77067 10.8876 7.184 11.4636C6.59733 12.0289 5.76 12.3116 4.672 12.3116C3.54133 12.3116 2.67733 12.0076 2.08 11.3996C1.48267 10.7916 1.184 9.90628 1.184 8.74361V6.61561C2.32533 6.61561 3.168 6.58894 3.712 6.53561C4.256 6.47161 4.66133 6.34361 4.928 6.15161C5.19467 5.95961 5.37067 5.65028 5.456 5.22361H0.672V3.75161H5.536V2.53561H0.672V0.96761H9.264V2.53561H7.648ZM13.5138 3.55961C13.5671 2.49294 13.9404 1.67161 14.6337 1.09561C15.3378 0.508944 16.2604 0.215611 17.4018 0.215611C18.1804 0.215611 18.8471 0.354277 19.4018 0.631611C19.9564 0.898277 20.3724 1.26628 20.6498 1.73561C20.9378 2.19428 21.0817 2.71694 21.0817 3.30361C21.0817 3.97561 20.9058 4.54628 20.5538 5.01561C20.2124 5.47428 19.8018 5.78361 19.3218 5.94361V6.00761C19.9404 6.19961 20.4204 6.54094 20.7618 7.03161C21.1138 7.52228 21.2898 8.15161 21.2898 8.91961C21.2898 9.55961 21.1404 10.1303 20.8418 10.6316C20.5538 11.1329 20.1218 11.5276 19.5458 11.8156C18.9804 12.0929 18.2978 12.2316 17.4978 12.2316C16.2924 12.2316 15.3111 11.9276 14.5538 11.3196C13.7964 10.7116 13.3964 9.81561 13.3537 8.63161H15.5298C15.5511 9.15428 15.7271 9.57561 16.0578 9.89561C16.3991 10.2049 16.8631 10.3596 17.4498 10.3596C17.9938 10.3596 18.4098 10.2103 18.6978 9.91161C18.9964 9.60228 19.1458 9.20761 19.1458 8.72761C19.1458 8.08761 18.9431 7.62894 18.5378 7.35161C18.1324 7.07428 17.5031 6.93561 16.6498 6.93561H16.1858V5.09561H16.6498C18.1644 5.09561 18.9218 4.58894 18.9218 3.57561C18.9218 3.11694 18.7831 2.75961 18.5058 2.50361C18.2391 2.24761 17.8498 2.11961 17.3377 2.11961C16.8364 2.11961 16.4471 2.25828 16.1698 2.53561C15.9031 2.80228 15.7484 3.14361 15.7057 3.55961H13.5138ZM25.2839 9.79961L23.4119 14.2956H21.9719L23.0119 9.79961H25.2839ZM26.1624 6.16761C26.1624 4.32228 26.493 2.87694 27.1544 1.83161C27.8264 0.786277 28.9357 0.263611 30.4824 0.263611C32.029 0.263611 33.133 0.786277 33.7944 1.83161C34.4664 2.87694 34.8024 4.32228 34.8024 6.16761C34.8024 8.02361 34.4664 9.47961 33.7944 10.5356C33.133 11.5916 32.029 12.1196 30.4824 12.1196C28.9357 12.1196 27.8264 11.5916 27.1544 10.5356C26.493 9.47961 26.1624 8.02361 26.1624 6.16761ZM32.5944 6.16761C32.5944 5.37828 32.541 4.71694 32.4344 4.18361C32.3384 3.63961 32.1357 3.19694 31.8264 2.85561C31.5277 2.51428 31.0797 2.34361 30.4824 2.34361C29.885 2.34361 29.4317 2.51428 29.1224 2.85561C28.8237 3.19694 28.621 3.63961 28.5144 4.18361C28.4184 4.71694 28.3704 5.37828 28.3704 6.16761C28.3704 6.97828 28.4184 7.66094 28.5144 8.21561C28.6104 8.75961 28.813 9.20228 29.1224 9.54361C29.4317 9.87428 29.885 10.0396 30.4824 10.0396C31.0797 10.0396 31.533 9.87428 31.8424 9.54361C32.1517 9.20228 32.3544 8.75961 32.4504 8.21561C32.5464 7.66094 32.5944 6.97828 32.5944 6.16761ZM36.0261 6.16761C36.0261 4.32228 36.3568 2.87694 37.0181 1.83161C37.6901 0.786277 38.7995 0.263611 40.3461 0.263611C41.8928 0.263611 42.9968 0.786277 43.6581 1.83161C44.3301 2.87694 44.6661 4.32228 44.6661 6.16761C44.6661 8.02361 44.3301 9.47961 43.6581 10.5356C42.9968 11.5916 41.8928 12.1196 40.3461 12.1196C38.7995 12.1196 37.6901 11.5916 37.0181 10.5356C36.3568 9.47961 36.0261 8.02361 36.0261 6.16761ZM42.4581 6.16761C42.4581 5.37828 42.4048 4.71694 42.2981 4.18361C42.2021 3.63961 41.9995 3.19694 41.6901 2.85561C41.3915 2.51428 40.9435 2.34361 40.3461 2.34361C39.7488 2.34361 39.2955 2.51428 38.9861 2.85561C38.6875 3.19694 38.4848 3.63961 38.3781 4.18361C38.2821 4.71694 38.2341 5.37828 38.2341 6.16761C38.2341 6.97828 38.2821 7.66094 38.3781 8.21561C38.4741 8.75961 38.6768 9.20228 38.9861 9.54361C39.2955 9.87428 39.7488 10.0396 40.3461 10.0396C40.9435 10.0396 41.3968 9.87428 41.7061 9.54361C42.0155 9.20228 42.2181 8.75961 42.3141 8.21561C42.4101 7.66094 42.4581 6.97828 42.4581 6.16761ZM45.8899 6.16761C45.8899 4.32228 46.2205 2.87694 46.8819 1.83161C47.5539 0.786277 48.6632 0.263611 50.2099 0.263611C51.7565 0.263611 52.8605 0.786277 53.5219 1.83161C54.1939 2.87694 54.5299 4.32228 54.5299 6.16761C54.5299 8.02361 54.1939 9.47961 53.5219 10.5356C52.8605 11.5916 51.7565 12.1196 50.2099 12.1196C48.6632 12.1196 47.5539 11.5916 46.8819 10.5356C46.2205 9.47961 45.8899 8.02361 45.8899 6.16761ZM52.3219 6.16761C52.3219 5.37828 52.2685 4.71694 52.1619 4.18361C52.0659 3.63961 51.8632 3.19694 51.5539 2.85561C51.2552 2.51428 50.8072 2.34361 50.2099 2.34361C49.6125 2.34361 49.1592 2.51428 48.8499 2.85561C48.5512 3.19694 48.3485 3.63961 48.2419 4.18361C48.1459 4.71694 48.0979 5.37828 48.0979 6.16761C48.0979 6.97828 48.1459 7.66094 48.2419 8.21561C48.3379 8.75961 48.5405 9.20228 48.8499 9.54361C49.1592 9.87428 49.6125 10.0396 50.2099 10.0396C50.8072 10.0396 51.2605 9.87428 51.5699 9.54361C51.8792 9.20228 52.0819 8.75961 52.1779 8.21561C52.2739 7.66094 52.3219 6.97828 52.3219 6.16761Z" fill="#EA3943"/>
</svg>
